<svg width="80" height="75" viewBox="0 0 80 75" fill="none" xmlns="http://www.w3.org/2000/svg">
<path d="M10.9392 55.0989C11.1579 54.3755 12.0692 54.1468 12.6036 54.6812L24.7784 66.856C25.304 67.3816 25.0927 68.2767 24.3875 68.5118L6.75489 74.3892C5.98539 74.6457 5.24672 73.9275 5.48146 73.1511L10.9392 55.0989Z" fill="#0EBBFF"/>
<circle cx="42.4229" cy="37.5" r="25" stroke="#0EBBFF" stroke-width="25"/>
<path d="M41.5003 13.3546L43.7482 14.7142C44.1598 14.9633 44.6636 14.595 44.5553 14.1292L43.9594 11.5725L45.9473 9.85002C46.3103 9.53585 46.1153 8.94002 45.6386 8.9021L43.0223 8.68002L41.9986 6.26418C41.8144 5.82543 41.1861 5.82543 41.0019 6.26418L39.9782 8.6746L37.3619 8.89668C36.8853 8.9346 36.6903 9.53043 37.0532 9.8446L39.0411 11.5671L38.4453 14.1238C38.3369 14.5896 38.8407 14.9579 39.2523 14.7088L41.5003 13.3546Z" fill="#FFCC00"/>
<path d="M41.5003 66.3546L43.7482 67.7142C44.1598 67.9633 44.6636 67.595 44.5553 67.1292L43.9594 64.5725L45.9473 62.85C46.3103 62.5358 46.1153 61.94 45.6386 61.9021L43.0223 61.68L41.9986 59.2642C41.8144 58.8254 41.1861 58.8254 41.0019 59.2642L39.9782 61.6746L37.3619 61.8967C36.8853 61.9346 36.6903 62.5304 37.0532 62.8446L39.0411 64.5671L38.4453 67.1238C38.3369 67.5896 38.8407 67.9579 39.2523 67.7088L41.5003 66.3546Z" fill="#FFCC00"/>
<path d="M16.5003 40.3546L18.7482 41.7142C19.1598 41.9633 19.6636 41.595 19.5553 41.1292L18.9594 38.5725L20.9473 36.85C21.3103 36.5358 21.1153 35.94 20.6386 35.9021L18.0223 35.68L16.9986 33.2642C16.8144 32.8254 16.1861 32.8254 16.0019 33.2642L14.9782 35.6746L12.3619 35.8967C11.8853 35.9346 11.6903 36.5304 12.0532 36.8446L14.0411 38.5671L13.4453 41.1238C13.3369 41.5896 13.8407 41.9579 14.2523 41.7088L16.5003 40.3546Z" fill="#FFCC00"/>
<path d="M18.5003 27.3546L20.7482 28.7142C21.1598 28.9633 21.6636 28.595 21.5553 28.1292L20.9594 25.5725L22.9473 23.85C23.3103 23.5358 23.1153 22.94 22.6386 22.9021L20.0223 22.68L18.9986 20.2642C18.8144 19.8254 18.1861 19.8254 18.0019 20.2642L16.9782 22.6746L14.3619 22.8967C13.8853 22.9346 13.6903 23.5304 14.0532 23.8446L16.0411 25.5671L15.4453 28.1238C15.3369 28.5896 15.8407 28.9579 16.2523 28.7088L18.5003 27.3546Z" fill="#FFCC00"/>
<path d="M28.5003 17.3546L30.7482 18.7142C31.1598 18.9633 31.6636 18.595 31.5553 18.1292L30.9594 15.5725L32.9473 13.85C33.3103 13.5358 33.1153 12.94 32.6386 12.9021L30.0223 12.68L28.9986 10.2642C28.8144 9.82543 28.1861 9.82543 28.0019 10.2642L26.9782 12.6746L24.3619 12.8967C23.8853 12.9346 23.6903 13.5304 24.0532 13.8446L26.0411 15.5671L25.4453 18.1238C25.3369 18.5896 25.8407 18.9579 26.2523 18.7088L28.5003 17.3546Z" fill="#FFCC00"/>
<path d="M54.5003 17.3546L56.7482 18.7142C57.1598 18.9633 57.6636 18.595 57.5553 18.1292L56.9594 15.5725L58.9473 13.85C59.3103 13.5358 59.1153 12.94 58.6386 12.9021L56.0223 12.68L54.9986 10.2642C54.8144 9.82543 54.1861 9.82543 54.0019 10.2642L52.9782 12.6746L50.3619 12.8967C49.8853 12.9346 49.6903 13.5304 50.0532 13.8446L52.0411 15.5671L51.4453 18.1238C51.3369 18.5896 51.8407 18.9579 52.2523 18.7088L54.5003 17.3546Z" fill="#FFCC00"/>
<path d="M65.5003 26.3546L67.7482 27.7142C68.1598 27.9633 68.6636 27.595 68.5553 27.1292L67.9594 24.5725L69.9473 22.85C70.3103 22.5358 70.1153 21.94 69.6386 21.9021L67.0223 21.68L65.9986 19.2642C65.8144 18.8254 65.1861 18.8254 65.0019 19.2642L63.9782 21.6746L61.3619 21.8967C60.8853 21.9346 60.6903 22.5304 61.0532 22.8446L63.0411 24.5671L62.4453 27.1238C62.3369 27.5896 62.8407 27.9579 63.2523 27.7088L65.5003 26.3546Z" fill="#FFCC00"/>
<path d="M68.5003 41.3546L70.7482 42.7142C71.1598 42.9633 71.6636 42.595 71.5553 42.1292L70.9594 39.5725L72.9473 37.85C73.3103 37.5358 73.1153 36.94 72.6386 36.9021L70.0223 36.68L68.9986 34.2642C68.8144 33.8254 68.1861 33.8254 68.0019 34.2642L66.9782 36.6746L64.3619 36.8967C63.8853 36.9346 63.6903 37.5304 64.0532 37.8446L66.0411 39.5671L65.4453 42.1238C65.3369 42.5896 65.8407 42.9579 66.2523 42.7088L68.5003 41.3546Z" fill="#FFCC00"/>
<path d="M65.5003 54.3546L67.7482 55.7142C68.1598 55.9633 68.6636 55.595 68.5553 55.1292L67.9594 52.5725L69.9473 50.85C70.3103 50.5358 70.1153 49.94 69.6386 49.9021L67.0223 49.68L65.9986 47.2642C65.8144 46.8254 65.1861 46.8254 65.0019 47.2642L63.9782 49.6746L61.3619 49.8967C60.8853 49.9346 60.6903 50.5304 61.0532 50.8446L63.0411 52.5671L62.4453 55.1238C62.3369 55.5896 62.8407 55.9579 63.2523 55.7088L65.5003 54.3546Z" fill="#FFCC00"/>
<path d="M55.5003 63.3546L57.7482 64.7142C58.1598 64.9633 58.6636 64.595 58.5553 64.1292L57.9594 61.5725L59.9473 59.85C60.3103 59.5358 60.1153 58.94 59.6386 58.9021L57.0223 58.68L55.9986 56.2642C55.8144 55.8254 55.1861 55.8254 55.0019 56.2642L53.9782 58.6746L51.3619 58.8967C50.8853 58.9346 50.6903 59.5304 51.0532 59.8446L53.0411 61.5671L52.4453 64.1238C52.3369 64.5896 52.8407 64.9579 53.2523 64.7088L55.5003 63.3546Z" fill="#FFCC00"/>
<path d="M18.5003 53.3546L20.7482 54.7142C21.1598 54.9633 21.6636 54.595 21.5553 54.1292L20.9594 51.5725L22.9473 49.85C23.3103 49.5358 23.1153 48.94 22.6386 48.9021L20.0223 48.68L18.9986 46.2642C18.8144 45.8254 18.1861 45.8254 18.0019 46.2642L16.9782 48.6746L14.3619 48.8967C13.8853 48.9346 13.6903 49.5304 14.0532 49.8446L16.0411 51.5671L15.4453 54.1238C15.3369 54.5896 15.8407 54.9579 16.2523 54.7088L18.5003 53.3546Z" fill="#FFCC00"/>
<path d="M28.5003 63.3546L30.7482 64.7142C31.1598 64.9633 31.6636 64.595 31.5553 64.1292L30.9594 61.5725L32.9473 59.85C33.3103 59.5358 33.1153 58.94 32.6386 58.9021L30.0223 58.68L28.9986 56.2642C28.8144 55.8254 28.1861 55.8254 28.0019 56.2642L26.9782 58.6746L24.3619 58.8967C23.8853 58.9346 23.6903 59.5304 24.0532 59.8446L26.0411 61.5671L25.4453 64.1238C25.3369 64.5896 25.8407 64.9579 26.2523 64.7088L28.5003 63.3546Z" fill="#FFCC00"/>
</svg>

