<svg viewBox="0 0 117 117" xmlns="http://www.w3.org/2000/svg">
<path d="M58.5 19.5C36.9574 19.5 19.5 36.9622 19.5 58.5C19.5 80.0378 36.9574 97.5 58.5 97.5C80.0426 97.5 97.5 80.0378 97.5 58.5C97.5 36.9622 80.0426 19.5 58.5 19.5ZM76.5716 69.6784C77.4857 70.5925 77.9993 71.8323 77.9993 73.125C77.9993 74.4177 77.4857 75.6575 76.5716 76.5716C75.6575 77.4857 74.4177 77.9993 73.125 77.9993C71.8323 77.9993 70.5925 77.4857 69.6784 76.5716L58.5 65.3932L47.3216 76.5716C46.8699 77.0259 46.3329 77.3864 45.7414 77.6324C45.1499 77.8784 44.5156 78.005 43.875 78.005C43.2344 78.005 42.6001 77.8784 42.0086 77.6324C41.4171 77.3864 40.8801 77.0259 40.4284 76.5716C39.5145 75.6574 39.001 74.4177 39.001 73.125C39.001 71.8323 39.5145 70.5926 40.4284 69.6784L51.6068 58.5L40.4284 47.3216C39.5143 46.4075 39.0007 45.1677 39.0007 43.875C39.0007 42.5823 39.5143 41.3425 40.4284 40.4284C41.3425 39.5143 42.5823 39.0007 43.875 39.0007C45.1677 39.0007 46.4075 39.5143 47.3216 40.4284L58.5 51.6068L69.6784 40.4284C70.5925 39.5143 71.8323 39.0007 73.125 39.0007C74.4177 39.0007 75.6575 39.5143 76.5716 40.4284C77.4857 41.3425 77.9993 42.5823 77.9993 43.875C77.9993 45.1677 77.4857 46.4075 76.5716 47.3216L65.3932 58.5L76.5716 69.6784Z"/>
</svg>
