<svg viewBox="0 0 206 206" xmlns="http://www.w3.org/2000/svg">
<path d="M103 145.917C105.432 145.917 107.472 145.093 109.12 143.445C110.768 141.797 111.589 139.76 111.584 137.333V103C111.584 100.568 110.76 98.531 109.112 96.8887C107.464 95.2464 105.427 94.4224 103 94.4167C100.574 94.411 98.537 95.235 96.889 96.8887C95.241 98.5424 94.417 100.58 94.417 103V137.333C94.417 139.765 95.241 141.805 96.889 143.453C98.537 145.101 100.574 145.922 103 145.917ZM103 77.25C105.432 77.25 107.472 76.426 109.12 74.778C110.768 73.13 111.589 71.0929 111.584 68.6667C111.578 66.2405 110.754 64.2034 109.112 62.5554C107.469 60.9074 105.432 60.0834 103 60.0834C100.568 60.0834 98.5313 60.9074 96.889 62.5554C95.2467 64.2034 94.4227 66.2405 94.417 68.6667C94.4113 71.0929 95.2353 73.1329 96.889 74.7866C98.5427 76.4403 100.58 77.2615 103 77.25ZM103 188.833C91.1267 188.833 79.9684 186.579 69.5253 182.07C59.0823 177.561 49.9983 171.446 42.2733 163.727C34.5483 156.008 28.4341 146.924 23.9307 136.475C19.4273 126.026 17.1727 114.868 17.167 103C17.1613 91.1321 19.4158 79.9738 23.9307 69.525C28.4455 59.0762 34.5597 49.9922 42.2733 42.2729C49.9868 34.5537 59.0708 28.4395 69.5253 23.9304C79.9798 19.4212 91.1382 17.1667 103 17.1667C114.862 17.1667 126.021 19.4212 136.475 23.9304C146.93 28.4395 156.014 34.5537 163.727 42.2729C171.441 49.9922 177.558 59.0762 182.079 69.525C186.599 79.9738 188.851 91.1321 188.834 103C188.817 114.868 186.562 126.026 182.07 136.475C177.578 146.924 171.464 156.008 163.727 163.727C155.991 171.446 146.907 177.563 136.475 182.078C126.044 186.593 114.885 188.845 103 188.833ZM103 171.667C122.17 171.667 138.407 165.015 151.711 151.71C165.015 138.406 171.667 122.169 171.667 103C171.667 83.8306 165.015 67.5938 151.711 54.2896C138.407 40.9854 122.17 34.3334 103 34.3334C83.8309 34.3334 67.5941 40.9854 54.2899 54.2896C40.9858 67.5938 34.3337 83.8306 34.3337 103C34.3337 122.169 40.9858 138.406 54.2899 151.71C67.5941 165.015 83.8309 171.667 103 171.667Z"/>
</svg>
