<svg width="1920" height="1080" viewBox="0 0 1920 1080" fill="none" xmlns="http://www.w3.org/2000/svg">
<path d="M1190.87 751.93L1188.93 742.224L1191.52 737.695L1188.93 732.195L1192.17 730.577L1192.81 733.812L1198 731.871L1197.35 724.754L1194.11 722.812L1189.57 726.048L1186.33 727.989H1182.44L1179.85 725.401L1179.2 722.165L1176.61 718.283V707.995L1163 694.342L1158.46 687.871L1154.57 686.577L1150.04 689.812L1151.33 691.754L1147.44 693.695L1140.96 695.636L1138.37 699.518L1133.19 696.283L1129.3 698.224L1124.11 697.577L1121.52 698.871L1118.28 696.93L1116.98 700.165L1113.74 703.401L1109.85 704.695L1108.56 710.518L1106.61 712.46L1105.31 716.342L1103.37 723.46L1101.43 729.283H1098.19L1097.54 731.224L1093 732.518L1094.3 735.107L1096.89 735.754L1098.19 738.989L1099.48 739.636L1100.13 742.871L1108.56 746.107L1107.26 748.695L1109.85 749.342L1106.61 751.283L1110.56 751.93L1110.5 753.871L1115.04 752.577L1116.33 755.165L1118.28 752.577L1117.63 749.989L1123.46 753.224L1120.87 754.518L1123.46 758.401L1128 759.695L1126.06 763.577H1130.2L1134.48 762.283L1142.71 763.577L1145.5 761.248L1156.52 761.636L1160.41 758.401L1164.94 753.224L1174.02 748.695L1176.61 750.636L1179.85 748.695L1181.15 750.636L1183.09 748.695L1185.04 751.283L1190.87 751.93Z" fill="#D9D9D9" stroke="black" stroke-miterlimit="10" stroke-linejoin="bevel"/>
<path d="M1191 751.83L1185.11 751.18L1183.15 748.577L1181.19 750.529L1179.88 748.577L1176.61 750.529L1173.99 748.577L1164.83 753.131L1160.25 758.336L1156.33 761.589L1145.21 761.199L1142.39 763.541L1134.08 762.24L1129.77 763.541H1125.58L1127.54 759.637L1122.96 758.336V760.808L1121 762.89L1122.31 769.396L1129.5 773.3L1127.54 779.155L1125.58 779.806L1124.93 778.505L1123.62 781.107L1124.93 783.059L1124.27 785.011L1126.23 786.312L1124.93 788.914L1128.2 791.517L1130.16 792.168L1133.43 795.421V802.577H1136.64L1138.01 800.625H1142.59L1148.48 796.071L1149.79 796.722L1151.75 795.421L1155.67 798.674L1156.98 796.722L1161.56 799.324L1168.1 796.071L1172.03 794.77L1171.37 792.168L1169.41 789.565L1172.03 788.264L1172.68 786.963L1175.3 786.312V783.71H1177.92L1181.19 780.457L1186.42 782.408L1189.04 779.806L1191 780.261L1187.07 777.204L1186.42 775.252L1184.46 774.601L1182.36 775.577L1182.5 773.951L1184.46 771.999V769.396L1187.07 768.746L1185.77 762.24L1185.11 760.939L1186.42 759.637V757.686L1189.69 756.384L1191 757.1V751.83Z" fill="#D9D9D9" stroke="black" stroke-miterlimit="10" stroke-linejoin="bevel"/>
<path d="M1133 802.877V795.727L1129.85 792.477L1127.96 791.827L1124.8 789.227L1122.28 788.577L1116.61 791.827H1114.09L1112.83 793.127V794.427L1110.3 793.777L1107.15 795.077L1106.52 799.627L1104.63 798.977V802.227L1105.89 804.177L1104 804.827L1105.89 806.777L1105.26 808.727L1109.67 814.577L1110.93 813.277L1112.07 814.577L1120.39 811.977L1122.91 808.077L1129.85 807.427L1130.48 806.127H1131.74V803.527L1133 802.877Z" fill="#D9D9D9" stroke="black" stroke-miterlimit="10" stroke-linejoin="bevel"/>
<path d="M1117 791.702H1114.38L1113.07 793.015V794.327L1110.45 793.671L1107.17 794.983L1106.52 799.577L1104.55 798.921V794.787L1101.93 793.015L1099.97 792.358L1098 789.077V785.796L1098.66 784.483L1100.62 783.827L1101.93 782.515L1106.52 778.577L1111.1 784.483L1115.69 787.108L1116.21 789.077L1117 791.702Z" fill="#D9D9D9" stroke="black" stroke-miterlimit="10" stroke-linejoin="bevel"/>
<path d="M1100 783.863L1098.06 784.506L1097.41 785.791V789.006L1094.18 790.934L1092.88 787.72L1089 795.434V796.72L1090.29 798.006L1089.65 800.577L1087.71 799.291L1087.06 798.006L1084.47 796.077L1083.82 794.791L1081.24 795.434L1079.94 793.506L1081.24 792.863L1078.65 792.22L1078.91 791.063L1079.29 789.006L1078 786.434V784.506L1079.94 783.22L1080.59 780.006L1081.24 778.077L1083.82 780.006V778.077L1081.88 776.149L1085.76 775.506L1087.06 773.577L1089 774.22L1094.82 777.434L1095.47 780.006L1100 783.863Z" fill="#D9D9D9" stroke="black" stroke-miterlimit="10" stroke-linejoin="bevel"/>
<path d="M1079.05 791.577L1079.43 789.468L1078.16 786.831V784.854L1080.07 783.535L1080.71 780.24L1081.35 778.262L1083.9 780.24V778.262L1081.99 776.285L1085.81 775.625L1087.09 773.648L1089 774.307L1088.36 771.67L1084.54 767.715L1087.09 768.375L1089 767.715V766.199L1087.09 765.738L1085.43 763.76H1082.62L1081.99 760.465L1084.54 753.873H1082.62L1078.8 755.191L1076.25 751.236L1074.97 752.555L1073.06 751.236H1071.21L1070.51 752.555L1069.23 751.236L1067.96 753.214L1064.77 752.555L1062.86 751.895L1060.3 752.555L1057.12 750.577L1055.84 752.555L1053.93 751.895L1052.01 752.555L1051.38 755.85L1046.91 752.555L1045 753.214V759.278L1046.91 760.465L1050.74 766.397L1049.46 768.375L1052.01 769.034L1060.94 778.921H1063.17L1063.49 782.217L1068.59 785.513L1067.96 787.49L1070.51 786.831L1073.38 789.468L1077.52 791.445L1079.05 791.577Z" fill="#D9D9D9" stroke="black" stroke-miterlimit="10" stroke-linejoin="bevel"/>
<path d="M1079.38 791.397L1077.81 791.265L1073.56 789.298L1070.62 786.674L1068.01 787.33L1068.66 785.362L1063.44 782.083L1063.11 778.803H1060.82L1051.67 768.964L1049.06 768.308L1050.37 766.341L1046.45 760.437L1044.49 759.257V753.222L1046.45 752.566L1051.02 755.846L1051.67 752.566L1053.63 751.91L1055.59 752.566L1056.9 750.599L1060.17 752.566L1062.78 751.91L1064.74 752.566L1068.01 753.222L1069.32 751.255L1070.62 752.566L1071.34 751.255H1073.24L1075.2 752.566L1076.5 751.255L1079.12 755.19L1083.04 753.878L1081.73 751.255L1081.99 748.631L1085 749.287V747.909L1079.77 746.663V744.695L1081.08 744.04L1078.47 743.056V740.104L1077.16 738.136H1075.07L1073.24 740.76L1066.7 742.072L1063.44 739.448H1060.17L1051.02 731.577H1047.95L1048.41 733.545H1046.45L1045.79 735.513L1041.22 736.824V738.464L1042.52 742.072L1041.22 743.843L1039.26 743.384L1037.95 745.351L1039.26 746.007L1037.95 747.516L1039.26 749.287L1036.64 749.943L1034.68 748.631L1033.38 749.943L1030.11 746.663L1028.15 749.287L1024.55 749.024L1022.92 750.599H1019L1019.65 753.222V755.19L1022.27 757.814L1022.92 760.437L1024.55 758.666V756.371L1025.53 757.814L1026.84 753.222L1028.8 751.255L1032.07 753.878L1034.03 755.19L1035.34 761.749L1039.26 766.341L1043.18 767.652L1041.22 768.308H1038.6V770.276L1046.45 776.179L1049.06 776.835L1048.41 780.115L1052.98 778.147L1055.59 780.115H1059.51L1062.13 783.394L1066.05 785.362L1067.36 788.642L1070.62 789.298L1076.5 791.921L1079.12 792.577L1079.38 791.397Z" fill="#D9D9D9" stroke="black" stroke-miterlimit="10" stroke-linejoin="bevel"/>
<path d="M1179.41 725.577L1178.76 722.342L1176.15 718.46V708.171L1162.47 694.518L1157.91 688.048L1154 686.754L1154.65 684.812L1158.56 684.165L1162.47 681.577H1165.73L1168.33 684.165L1170.94 682.871L1172.24 684.812L1175.5 683.518L1178.76 686.107L1180.06 684.812L1181.36 686.754L1182.02 691.283L1185.27 695.165L1186.58 693.224L1187.88 694.518V697.365L1189.18 699.048L1192.44 700.342L1194.39 704.871L1197 706.165L1194.39 708.107L1192.44 706.165L1191.79 708.754L1189.18 707.46L1187.23 709.401L1185.92 706.812L1183.97 710.048L1186.58 712.636L1185.27 714.577L1186.58 716.518L1183.97 717.165L1184.62 719.107L1182.67 720.401L1183.32 724.93H1180.71L1179.41 725.577Z" fill="#D9D9D9" stroke="black" stroke-miterlimit="10" stroke-linejoin="bevel"/>
<path d="M826.349 658.691L822.453 659.341L826.349 660.834V663.366L828.946 659.99H831.543L832.257 658.691L836.737 659.341L841.932 661.938L845.178 656.094H851.411L854.917 658.691L858.163 658.042L859.787 659.73L860.76 657.393L866.604 658.042L867.123 656.094L871.798 658.042L871.279 659.73L878.94 658.691L882.186 660.639L884.784 658.691L888.679 657.393L890.172 659.73L891.926 656.094L893.873 655.445L894.523 652.199H889.393L886.731 650.251L890.627 648.303V645.706H893.743L893.873 642.459L897.769 641.81L901.015 634.668L899.068 629.474L890.627 626.877L888.03 629.474L884.848 626.877L887.381 624.28L888.679 622.332L886.731 618.436L886.082 615.839L888.03 615.19L885.433 609.347L886.082 606.749L884.134 604.802L882.836 601.555L878.291 597.66L875.694 584.025L876.992 582.077L874.395 580.129L872.447 576.234L867.902 573.637L865.955 574.286L861.734 573.637V571.299H865.111L865.305 569.092L868.552 571.039L867.902 567.793H864.851L865.955 565.196L870.5 565.845L876.343 557.405L876.992 554.158L880.239 552.211V548.964L870.5 547.666L866.604 546.367L861.734 548.055L858.813 545.069L864.007 543.77L863.358 541.822L871.149 536.628L871.798 534.031L873.097 532.083H863.812L860.76 532.732L858.163 530.135L856.216 532.732V535.979H853.618L852.32 538.576L853.618 540.524L849.723 539.874L847.126 541.173L849.723 545.069V550.912L847.775 550.263L849.074 552.86L846.476 553.509L843.879 554.158L845.178 556.106L841.282 556.755L841.932 559.353V561.3L845.827 559.353L849.723 558.054L846.476 561.3L847.775 563.248H845.178L844.529 567.144L851.021 565.196L849.074 569.741L851.021 571.689L849.074 574.286L851.021 578.181L847.126 582.726L845.178 587.271L849.074 590.518V586.622L853.618 589.868L858.163 588.57L862.708 589.219L858.813 591.816L856.865 595.712L857.514 599.607H859.462V602.854L861.734 600.257V603.698L858.813 606.1L860.111 609.347L857.514 611.944L860.111 615.19L856.216 614.541H849.074L843.879 616.489L840.633 619.735L845.827 619.086L846.476 625.578L841.932 630.773L838.036 631.422L836.737 632.72L832.192 632.071L831.543 635.967L834.789 637.265L836.737 635.967L840.633 636.616V640.512L844.529 639.213L846.476 643.109L849.074 645.057L852.32 642.459L859.462 640.512L854.268 644.407L852.32 647.654L848.424 648.952L843.23 647.004L839.984 647.654L838.685 649.601L836.737 648.952L835.439 652.199L832.842 653.497L830.245 656.094L826.349 658.691Z" fill="#D9D9D9" stroke="black" stroke-miterlimit="10" stroke-linejoin="bevel"/>
<path d="M831.543 598.309L832.842 597.66L833.491 595.712H837.322V590.258H834.4L836.737 588.57V586.622L834.4 585.129L834.789 580.779L832.842 580.129H829.465L826.998 579.48L825.7 581.428L823.752 580.779L821.155 584.025H817.908L819.207 586.622L814.013 587.921L815.961 592.465L819.856 594.413L822.453 594.024V591.751L824.401 590.518L825.635 593.959L826.998 595.063L826.349 597.66H828.946L831.543 598.309Z" fill="#D9D9D9" stroke="black" stroke-miterlimit="10" stroke-linejoin="bevel"/>
<path d="M773.228 416.863L774.515 418.791L776.446 419.434L780.95 424.577H787.322L789.317 422.006L793.822 422.649L795.752 423.934L796.396 421.363L798.327 423.291H800.257L803.475 421.363H807.337L808.624 418.791L810.554 422.006L813.129 421.363H814.416V418.341L816.99 418.149V416.027L819.564 417.506L821.495 416.863L820.851 413.649L824.069 414.934L826 413.006L822.139 411.077L825.356 409.149L826 406.577L823.426 404.649L820.851 405.291L823.426 402.72L820.208 401.434L823.426 398.22L821.495 396.291L822.139 393.077L819.564 394.363L818.277 392.434L818.921 389.863L818.277 387.291L815.059 386.006V390.506L812.485 392.434L810.554 389.22L807.337 392.434L805.406 391.791V387.934L803.475 387.291L802.188 395.649L800.257 393.077L800.901 390.506L800.257 388.577L800.901 386.649L800.257 384.72L797.683 386.006L796.396 385.363L795.109 387.291V389.863L792.535 389.22V383.434L790.604 382.149L789.96 387.291L786.743 389.863H784.812L786.099 387.291L782.881 388.577L780.95 393.077H779.02L780.307 389.22L779.663 387.934L781.594 386.006L780.95 382.791L783.525 383.434L784.426 382.149L782.881 379.577L783.525 377.006L782.238 374.434L779.02 370.577L777.733 373.149L779.663 376.363L778.376 379.577L775.158 377.006V373.149L773.228 371.734L772.584 374.434H770.01L768.079 375.72L764.861 376.363L766.149 378.934L768.723 381.506L773.228 382.149L775.802 381.506L777.089 384.077L775.802 385.363L778.376 386.649L775.158 387.934L771.941 388.577L773.871 390.506L775.802 389.863L777.089 392.434L773.228 393.077L770.01 391.149L767.436 389.863L764.218 389.22L761 387.934V389.799L764.218 390.506L767.436 393.077H770.01L768.723 396.291L769.366 399.506L772.584 398.22L771.941 400.149L770.01 401.434L772.584 403.363H768.723L767.436 405.291L764.218 405.934L762.287 404.649L761.644 406.577L765.505 409.149L770.01 411.077L773.871 413.006V414.934L773.228 416.863Z" fill="#D9D9D9" stroke="black" stroke-miterlimit="10" stroke-linejoin="bevel"/>
<path d="M736 911.91L752.176 909.577L761.882 900.91L773.529 881.577H778.706L781.294 887.577L787.765 894.91L794.882 895.577L796.824 894.91L799.282 896.71L802 895.577L804.588 897.577L809.765 896.244L811.059 900.91H814.941H817.529L819.471 902.91L824 907.577L822.706 909.577L824 911.91L814.294 913.577L804.588 915.577L795.853 911.91L786.471 913.577L779.353 910.91L772.624 912.91H760.265L749.394 911.91H736Z" fill="#D9D9D9" stroke="black" stroke-miterlimit="10" stroke-linejoin="bevel"/>
<path d="M824.528 911.947L823.234 909.637L824.528 907.657L820 903.037L825.174 902.377L832.289 899.737L837.463 894.457L841.344 895.117L844.578 892.477L845.225 895.117H849.106L851.693 891.157L864.628 885.877L877.564 886.537L880.539 885.877L884.679 887.857L889.853 883.237L891.147 885.877L893.734 884.557L896.968 885.217L900.849 883.237L905.376 883.897H913.138L918.312 889.177L922.193 888.517L922.839 886.537L929.954 885.877L931.7 883.237L934.482 882.577L935.775 885.217H938.362L940.303 885.877H942.89V883.435L946.771 883.897L952.592 887.197L955.826 885.877H961V887.791L958.413 887.857L959.06 889.837L955.826 891.157L958.413 893.797C958.413 893.797 956.472 900.397 956.472 901.057C956.472 901.717 957.766 906.337 957.766 906.337L956.472 909.637L957.766 911.617L948.711 912.937L940.95 912.277L933.188 915.577L912.361 911.749L892.44 910.297L885.326 913.597L875.689 911.815L865.922 909.637L855.315 911.881L844.578 909.637L832.612 911.947H824.528Z" fill="#D9D9D9" stroke="black" stroke-miterlimit="10" stroke-linejoin="bevel"/>
<path d="M957.966 911.283L956.655 909.342L957.966 906.107C957.966 906.107 956.655 901.577 956.655 900.93C956.655 900.283 958.621 893.812 958.621 893.812L956 891.224L959.276 889.93L958.621 887.989L961.241 887.924V886.048L963.862 885.401L969.103 882.165L976.966 879.577L976.31 883.46L979.586 881.518H981.552V885.077L984.172 887.342V889.283L992.034 884.107L994 886.695C994 886.695 991.379 887.989 991.379 888.636C991.379 889.283 990.069 892.518 990.069 892.518L985.483 895.754L984.828 898.989L986.793 902.224L989.414 904.165L990.069 905.46L992.69 906.107V911.283L985.483 912.577L979.979 911.283L969.759 912.577L963.862 911.93L957.966 911.283Z" fill="#D9D9D9" stroke="black" stroke-miterlimit="10" stroke-linejoin="bevel"/>
<path d="M759.108 777.884L766.243 776.577L764.946 781.15H768.968L773.378 783.763L777.27 783.109L783.627 783.763V789.446L787 790.295L785.703 793.561L781.162 794.867L779.865 797.219H776.427L777.919 801.4L776.622 806.626L777.27 809.238L773.054 810.872L774.027 813.158L772.081 818.384L764.946 817.077L767.541 820.997V824.916L770.135 828.182L768.838 831.448L764.946 832.755L764.297 834.714L763.649 836.674L764.946 841.247H768.059L766.892 843.206L762.351 844.513L761.054 847.126L759.108 850.653V855.617L753.27 857.577L744.838 853.658L739 853.005L742.892 847.126L744.189 841.247L742.892 839.287L746.135 834.714L748.081 832.755L746.135 830.795H740.946L739 825.438L742.243 819.037L742.892 815.771L744.838 816.424L751.324 807.279L753.27 805.972L751.973 804.013L754.568 798.787L757.162 797.48V794.214L757.811 790.295L757.162 783.109L759.757 781.803L757.162 779.843L759.108 777.884Z" fill="#D9D9D9" stroke="black" stroke-miterlimit="10" stroke-linejoin="bevel"/>
<path d="M759.936 778.038L767.036 776.733L765.745 781.303H769.747L774.136 783.914L778.009 783.261L784.335 783.914V789.594L787.691 790.442L786.4 793.707L781.882 795.012L780.591 797.363H777.17L778.655 801.541L777.364 806.764L778.009 809.375L773.814 811.007L774.782 813.292L772.845 818.515L765.745 817.209L768.327 821.126V825.043L770.909 828.308L769.618 831.572L765.745 832.878L765.1 834.836L764.455 836.795L765.745 841.365H768.844L767.682 843.323L763.164 844.629L761.873 847.24L759.936 850.766V855.727L764.455 856.38L770.909 862.909L774.136 863.562L770.909 866.173L772.845 870.09L771.555 871.396L774.136 875.313L778.009 878.577L781.882 877.271L785.109 873.354L791.564 874.007L794.791 871.396L804.473 872.701L808.345 874.66L811.573 873.354L816.091 875.966L819.318 874.007L823.836 875.966L826.418 872.701L832.873 866.173L839.327 864.867L844.491 866.173L841.909 861.603L845.782 859.645L845.136 856.38H847.718V854.095L850.945 852.463L856.755 849.199L852.236 843.976L851.591 836.142L861.918 825.043L865.145 821.126L869.018 819.821L867.082 817.862L872.245 813.945L883.864 813.292L888.382 809.375L898.064 804.152V799.06L900 797.624L898.064 795.665L894.836 794.36L893.545 796.971L889.027 795.012L885.155 795.665L883.218 793.054H879.345V790.442L876.118 788.484L872.245 785.872L870.955 788.484L867.727 787.178L865.791 788.484L864.5 785.872L862.564 787.831L859.982 784.567H856.109L854.818 781.303L849.009 779.344L847.073 778.691L847.718 776.08L845.136 774.774L843.845 773.468L839.973 774.774L835.455 771.51H833.195L832.227 770.204L829.968 771.771L825.773 770.204L823.836 767.593L819.964 767.07L818.673 768.246L808.345 766.287L801.245 762.37L798.664 759.758L796.082 761.064L792.661 759.758L787.691 759.106H783.947L779.945 753.23L777.364 754.536L774.782 752.577L767.036 756.494L761.227 758.453L758 761.064L759.291 764.328L763.164 764.981L762.518 768.246L761.227 770.204L763.164 772.163L760.582 774.774L759.936 778.038Z" fill="#D9D9D9" stroke="black" stroke-miterlimit="10" stroke-linejoin="bevel"/>
<path d="M843.879 773.613L845.178 774.911L847.775 776.21L847.126 778.807L849.074 779.456L854.917 781.404L856.216 784.65H860.111L862.708 787.897L864.656 785.949L865.955 788.546L867.902 787.247L871.149 788.546L872.447 785.949L876.343 788.546L879.589 790.494H882.836L883.485 793.091L885.433 795.688L889.328 795.039L893.873 796.986L895.172 794.389L898.418 795.688V792.831V790.429L897.12 788.546L899.717 785.949L898.418 784.001L902.963 782.702L909.456 778.158L913.352 780.105L916.598 780.755L917.896 783.352L918.546 779.456L920.494 782.053L922.441 779.456L924.389 782.053L923.091 782.702L925.688 783.352V785.3L929.583 785.949L932.18 787.897H934.128L937.375 786.598H939.972V784.65L941.92 782.053L946.464 780.105L943.218 778.807L943.867 776.859H946.464L948.412 778.158L951.009 777.508L952.503 773.613L952.957 771.665H949.062L944.517 768.418L943.867 765.821L946.335 762.25L945.166 759.978L941.27 756.732L943.218 755.433L944.517 756.082L947.763 751.537L945.815 750.239V747.642L943.218 745.694L946.464 743.746L944.517 740.5V737.903L943.867 735.306H938.933L938.673 737.903L937.375 739.85H934.778L936.725 737.903V732.708L940.621 730.761V727.514L943.218 726.216L947.114 721.671L945.815 720.372L947.114 718.424L950.36 719.723L952.957 717.905V714.009L954.256 711.282L953.606 708.685L956.204 705.439V701.933L960.748 695.7L954.256 693.752L952.957 692.454L949.062 693.752L947.114 691.155L946.464 693.103L943.867 687.909L941.205 687.129L939.322 686.61L938.024 687.909L936.076 685.311L932.83 686.61L930.882 682.714L926.986 681.416V678.169V675.572L923.74 678.169H920.494L920.299 675.572L920.494 672.326L915.299 671.677L914.65 669.08H911.793L911.404 663.885L908.157 664.535L905.56 662.587L904.911 659.341L897.12 659.99L895.172 663.885L894.523 669.729L895.172 672.326L892.575 672.975L889.328 674.923L882.836 676.222L878.291 678.169L878.94 680.767L879.589 682.714H876.992L875.044 684.013L871.149 682.065L867.253 680.767L864.656 682.065L863.358 677.52L865.305 675.572H860.76H858.163V678.819L860.111 680.767V684.013L859.462 688.558L861.41 691.804L858.163 692.454L854.917 691.155L853.618 693.752L851.021 689.856L847.126 691.804L843.879 686.805L841.932 685.311H839.984L838.036 687.259L836.088 686.61L833.491 685.961L830.245 686.61L825.7 687.909L825.05 689.856L830.245 688.558L830.894 691.804L828.297 692.454L828.946 694.401L825.05 694.726L826.998 696.998L827.648 698.946L830.245 697.648L832.192 698.946L834.79 700.245L836.737 702.193L838.685 700.894L839.984 702.842L840.633 704.79H844.529L842.581 706.738L847.775 707.387L845.827 711.282L848.424 712.581L850.372 715.178L848.424 717.775L850.372 721.671L851.021 726.216H854.268L855.761 728.164H858.033L856.865 732.059L858.163 734.007L856.865 735.306L858.163 738.552L860.76 743.746V748.94L858.813 745.045L856.216 741.798L852.969 752.836L855.566 753.485L854.917 755.433L851.671 757.381L850.372 765.172L847.775 772.314L843.879 773.613Z" fill="#D9D9D9" stroke="black" stroke-miterlimit="10" stroke-linejoin="bevel"/>
<path d="M968.67 815.88C969.124 815.88 969.773 815.491 969.773 815.491V812.829L970.423 811.595L972.046 810.556L971.656 806.141L972.5 804.453L973.864 802.311L973.539 799.129L973.15 796.922L972.241 795.883L972.63 792.506L972.176 790.948L970.617 793.026L971.267 795.818L969.644 795.169L968.28 794.324L967.371 796.272H965.618L964.449 797.895L963.735 799.973H962.696L963.605 801.531L962.437 803.219L963.8 804.258L964.449 805.687L962.826 806.466L964.514 807.115L964.774 808.479L963.605 809.193C963.605 809.193 963.8 810.361 963.8 810.621C963.8 810.881 965.034 811.53 965.034 811.725C965.034 811.92 965.034 813.543 965.034 813.543L966.722 813.738L968.15 813.932L968.67 815.88Z" fill="#D9D9D9" stroke="black" stroke-miterlimit="10" stroke-linejoin="bevel"/>
<path d="M941.11 686.827L939.204 686.327L937.891 687.577L935.92 685.077L936.905 683.827L935.92 681.952L935 679.515L937.234 676.515L938.679 675.577H939.927L939.664 678.39L940.321 680.14L942.489 681.14L944 682.015L943.277 683.64L941.569 684.64L941.11 686.827Z" fill="#D9D9D9" stroke="black" stroke-miterlimit="10" stroke-linejoin="bevel"/>
<path d="M883 793.577H880V790.577H882.5L883 793.577Z" fill="#D9D9D9" stroke="black" stroke-miterlimit="10" stroke-linejoin="bevel"/>
<path d="M948 778.177L946.125 776.577H943.625L943 778.977L946.125 780.577L948 778.177Z" fill="#D9D9D9" stroke="black" stroke-miterlimit="10" stroke-linejoin="bevel"/>
<path d="M1269 871.91L1270.89 874.577L1271.53 875.91H1275.76L1277.21 874.577L1279.11 876.577V874.244L1285.42 869.91V867.444L1287.95 866.577L1290.47 865.91L1287.32 863.91L1287.95 860.577L1293 854.577L1284.79 861.244L1281.63 863.244L1275.32 864.577L1276.58 866.577L1275.32 868.577H1272.16L1271.53 870.577L1269 871.91Z" fill="#D9D9D9" stroke="black" stroke-miterlimit="10" stroke-linejoin="bevel"/>
<path d="M1052.39 697.454L1051.08 696.808L1050.04 697.454L1047.81 695.516L1046.18 697.454H1043.5L1036.71 694.223L1033.44 695.516L1032.14 693.577L1031.48 698.1L1029.52 697.454L1028.22 701.331L1026.26 700.039L1024.3 701.977L1019.73 699.393L1019.33 701.977H1015.74L1015.15 705.208L1008.62 709.085L1011.23 713.608L1010.58 714.9L1012.54 716.193L1011.89 719.423H1009.93L1009.27 716.193L1006.01 717.485L1004.05 716.193H1002.74V718.131H996.863L995.818 719.423H994.315L993.597 720.716L989.677 721.362L988.371 718.777H983.798L984.06 721.362L981.839 723.3L981.185 721.362L978.573 718.777L976.613 718.131L974.653 719.423L975.306 721.362L974 723.946L975.306 726.531L977.919 727.177L978.573 729.116L980.532 729.762L983.145 727.823H984.452V730.408L987.065 729.762L989.024 731.054L992.29 727.823H998.823L1002.74 725.885L1002.35 728.469L1004.05 729.116L1004.83 731.054L1010.58 732.993L1020.38 734.285L1024.95 735.577L1027.56 734.931L1029.52 735.577L1032.14 733.639L1033.44 731.054L1039.32 731.7L1040.63 729.762L1045.2 730.408L1044.55 727.694L1045.85 726.531L1049.77 722.654L1048.47 718.777L1050.43 717.485L1051.73 716.839L1050.82 714.577L1048.47 712.962H1055L1054.35 709.731L1055 707.146L1051.08 701.977L1052.06 699.716L1052.39 697.454Z" fill="#D9D9D9" stroke="black" stroke-miterlimit="10" stroke-linejoin="bevel"/>
<path d="M973.68 726.577L972 725.97V724.487L973.6 721.319L976 720.577L974.4 723.274L976 725.97L973.68 726.577Z" fill="#D9D9D9" stroke="black" stroke-miterlimit="10" stroke-linejoin="bevel"/>
<path d="M1461.66 373.076H1456.86L1449.65 369.116V376.063L1441.86 377.556L1438.61 385.997L1440.56 391.84L1438.61 396.645L1430.17 410.669L1430.82 417.811L1427.58 421.707L1423.03 428.199L1419.78 434.043L1419.14 441.185H1414.53L1413.29 445.08L1410.05 446.379L1411.99 454.82L1416.54 450.275L1415.24 456.118L1423.03 453.521L1425.89 456.118L1419.14 461.962L1419.78 467.156L1424.98 469.104L1423.03 480.79L1428.87 479.492L1427.58 482.738L1434.72 478.843L1440.56 479.492L1444.46 484.037L1440.56 493.776H1434.52L1435.89 501.762H1431.15L1423.75 503.515L1419.85 502.216L1414.66 504.814L1417.25 509.358L1414.01 511.306L1410.11 509.943L1406.21 513.903V525.915H1393.42L1396.48 533.382L1390.63 530.784L1384.79 528.837H1377.65L1367.26 530.784L1365.96 537.277H1358.04L1354.92 542.471L1352.97 552.211L1349.08 554.808L1351.68 560.002L1346.48 565.845L1353.62 572.338L1352.26 577.532L1340.64 573.637L1338.69 578.181L1340.64 581.428L1338.69 585.843L1341.94 593.764L1344.53 594.413V601.555L1345.83 608.048L1352.33 606.749L1356.87 613.242L1360.77 610.645L1365.31 609.347L1382.19 617.787L1377.65 619.735L1377 622.332H1385.63L1386.09 628.175L1382.84 632.071L1377.65 639.213L1375.7 643.109L1377 650.251L1375.7 659.341L1377.65 663.885L1385.44 665.184L1390.63 671.027L1393.88 678.169L1400.18 682.13L1410.76 689.207H1414.79L1412.71 697.648L1412.06 702.193L1406.86 704.79L1403.62 702.193H1398.42L1392.58 700.245L1382.84 701.543L1380.89 696.349L1377 698.297L1371.15 696.998L1370.5 700.245L1367.26 698.946L1363.23 704.79L1358.17 705.439L1359.27 703.491H1349.86H1343.04L1338.69 705.439L1330.9 708.036H1322.65L1317.26 709.335L1315.97 712.581L1297.79 705.439L1291.94 707.387L1284.8 702.193L1280.26 704.79L1277.01 700.245L1271.82 700.894L1274.41 696.998L1282.2 695.051L1278.96 689.856V682.714L1286.55 681.416L1278.96 678.169L1275.06 674.923L1281.55 668.43L1286.75 663.236L1284.8 658.691L1281.55 661.938L1276.36 665.184L1274.41 658.042L1278.31 654.796L1279.61 650.251L1286.75 648.303L1285.45 640.512L1280.26 635.967L1282.85 632.72L1277.01 630.773L1280.26 626.877L1278.96 621.683L1273.11 622.332L1263.37 621.033L1258.18 623.631L1256.88 625.578L1249.74 619.735L1243.25 626.228L1236.75 624.929L1232.21 628.175L1228.31 623.631L1223.12 617.138L1215.98 618.436L1211.43 613.891L1214.03 609.996L1207.54 607.399L1204.94 603.503L1201.69 604.152L1198.45 608.048L1192.6 608.697L1190.01 614.541L1184.81 609.347L1182.86 604.802L1178.32 600.906V597.205L1186.76 597.66L1189.36 593.115L1187.41 589.868L1185.46 586.622L1179.62 588.57L1178.32 584.22L1171.83 581.428L1169.42 577.208L1165.33 575.584V570.455L1164.04 562.599L1156.24 560.651L1150.4 565.196L1148.45 561.95L1143.91 562.599L1140.01 561.3L1138.06 561.95L1136.77 557.405L1132.87 552.86L1130.27 550.263V544.679L1126.38 541.822V536.693V533.317L1123.13 530.784V526.11L1119.89 521.045L1121.83 518.448L1123.13 513.254L1123.78 511.306L1121.18 506.761H1125.08V504.814H1129.62L1128.33 501.567L1138.06 500.269L1134.82 497.672L1132.87 495.724L1127.68 497.672L1124.43 495.074L1122.48 489.88L1117.29 493.776L1123.78 481.44L1131.57 458.715L1132.87 450.275L1118.59 441.834L1120.53 435.991L1117.29 432.614L1114.69 431.446V426.836L1108.85 423.654V420.603L1106.9 412.617H1109.5L1099.76 398.982L1095.86 395.736L1099.76 382.75L1093.91 378.205L1088.07 376.258L1086.12 370.414L1084.82 365.869L1086.77 363.921L1088.07 358.078L1090.02 354.182L1094.56 352.884L1093.27 349.637H1098.33L1097.16 345.092L1104.3 346.391L1102.35 350.287H1107.55L1108.2 358.078L1112.74 350.287H1117.94L1122.48 348.339L1138.71 354.182L1143.91 356.13L1151.05 356.779L1156.89 358.727L1159.49 357.429L1162.74 363.272L1165.33 364.571L1166.63 371.713L1165.33 379.504L1160.79 384.698L1153 388.594L1147.8 386.646L1139.36 389.892L1132.87 388.594L1127.68 389.243L1121.18 388.594L1117.94 385.347H1112.09L1115.34 387.944L1118.59 391.191L1126.38 393.788L1125.08 396.385L1134.17 397.684L1136.77 401.579L1138.06 406.124L1139.36 409.37L1142.61 412.617L1143.26 417.811L1149.75 421.057L1154.3 419.759L1156.24 422.356L1165.33 423.005L1168.58 419.11L1167.28 414.565L1162.74 411.968L1160.79 414.565L1153 409.37L1155.6 407.423L1154.3 403.527L1162.09 406.124L1166.63 405.475L1173.77 406.124L1175.72 403.527L1180.27 404.176L1178.97 398.982L1169.88 394.437L1169.23 389.243L1171.83 383.4L1174.42 378.205L1175.72 369.765L1179.62 371.713L1181.57 369.116L1186.11 371.063L1190.66 374.31L1187.41 367.168L1186.76 360.675L1184.16 356.779L1179.62 355.481L1176.37 356.13V348.988L1173.13 341.846L1164.69 337.95L1169.88 336.652L1177.67 333.405L1186.11 336.652V340.547L1182.22 343.794V347.04V350.287L1187.41 352.234L1190.66 354.832L1195.2 353.533L1200.4 348.988L1198.45 343.145L1196.5 337.95L1199.1 332.107L1202.34 325.614L1202.99 317.823L1208.19 310.681L1209.48 314.577L1212.08 309.382L1208.84 305.487L1212.08 302.24L1217.93 308.733L1222.47 304.837L1220.52 298.994L1230.91 293.8L1229.61 288.606L1232.21 282.113L1237.4 286.658L1241.95 285.359L1238.7 280.814L1240.65 276.269L1229.61 270.426L1221.17 267.829L1224.42 264.583L1232.21 263.284L1240.65 256.791L1252.34 253.545L1261.43 250.299H1271.36H1276.75H1283.96L1289.35 252.896L1295.19 250.948L1299.08 249L1303.11 250.299L1306.88 254.843L1302.98 260.038L1308.82 258.09L1314.67 252.896L1323.76 250.299C1323.76 250.299 1331.55 251.597 1332.2 252.246C1332.85 252.896 1342.59 254.843 1342.59 254.843L1348.43 252.246L1354.92 251.597L1360.12 253.545L1368.56 252.896L1375.24 249L1381.54 251.597L1386.09 252.896L1391.28 252.246L1394.53 250.299L1397.77 254.843L1405.57 258.09L1411.41 255.493L1417.25 250.948L1426.34 257.441L1430.89 260.687L1436.08 257.441L1439.98 259.388L1443.22 263.284L1447.12 261.985L1451.66 265.881L1456.86 267.18L1461.73 269.972L1464 280.814L1461.73 293.67L1459.46 307.435L1457.51 323.017L1461.4 334.055L1460.1 350.936L1464 363.272L1461.66 373.076Z" fill="#D9D9D9" stroke="black" stroke-miterlimit="10" stroke-linejoin="bevel"/>
<path d="M1080.93 587.141L1082.75 588.44L1086.12 588.829L1088.46 589.998L1090.02 589.089L1092.55 588.959L1093.59 590.193L1095.47 590.712L1095.67 592.66L1094.95 596.036L1096.25 599.088L1094.82 600.387L1091.25 601.555L1082.94 602.594H1077.55L1071.84 602.659L1068.46 602.075L1069.96 599.542L1070.28 597.27L1069.63 594.933L1072.29 594.543L1074.18 593.569L1075.67 594.413L1079.31 594.024L1081.38 592.985L1080.8 591.297L1080.21 589.089L1080.93 587.141Z" fill="#D9D9D9" stroke="black" stroke-miterlimit="10" stroke-linejoin="bevel"/>
<path d="M938.385 661.91L939.879 663.061L940.203 664.723L939.099 665.299L938.644 666.577H936.241L935.332 665.363L936.371 664.212V662.614L937.475 661.527L937.215 658.778L931.954 657.755L930.2 655.582L927.277 653.6L923.834 655.134L922.6 653.28L918.573 654.431L915 652.13L916.494 651.618L919.742 652.513L922.73 651.299L920.262 651.043L918.508 649.637L921.691 648.294L920.781 646.184C920.781 646.184 924.159 643.627 924.159 643.18C924.159 642.732 927.991 637.363 927.927 637.171C927.862 636.979 928.251 631.929 928.251 631.929L931.369 631.609L933.968 633.527L932.409 635.892L934.877 636.979L937.021 634.869L937.215 632.952L935.721 630.522L936.111 627.454L940.853 625.408L946.244 624.577L948.648 624.897L950.856 627.646L953 628.605L951.506 632.696L951.051 636.723L947.609 637.043L947.219 639.28L950.597 640.367V643.116L946.309 645.801L948.193 647.719L944.88 649.892L942.802 649.189H939.944L939.489 651.171L942.022 655.262L939.619 658.778L940.983 659.673L938.385 661.91Z" fill="#D9D9D9" stroke="black" stroke-miterlimit="10" stroke-linejoin="bevel"/>
<path d="M973.734 602.919L969.903 601.426H966.592L967.306 596.751L966.917 592.66L963.216 592.076L962.047 590.128L962.501 587.661H964.904L965.228 585.324L963.93 582.662H962.501L962.696 578.636L963.54 573.831L964.709 575.974L968.929 574.416L970.942 572.013L971.332 575.779L973.734 575.649L972.825 572.013L972.695 569.611L971.072 568.248L967.566 568.507L965.813 572.728L964.774 571.429L965.943 567.469L969.903 565.975L974.903 566.43L976.85 562.274L978.474 559.742L980.941 559.353L983.668 557.47L982.434 560.521L983.668 562.404L982.824 565.391L981.46 568.313L978.474 567.598L976.98 567.858L977.5 568.897L980.746 570.131L981.265 572.598L980.032 573.831L981.72 574.805L982.174 576.234L985.096 576.623L987.174 576.364V579.026L985.875 580.908L983.863 582.207L982.759 580.584L981.006 580.194L980.811 583.506L980.292 587.077L979.058 588.44L975.941 588.765L975.292 589.868L977.24 590.453L978.668 591.946L980.616 590.842L982.045 589.868L984.317 591.557L986.135 593.31L986.59 596.037L985.875 598.958L981.915 598.309L980.162 596.231L978.084 593.894L975.812 591.881L974.578 592.271L975.292 594.673L975.877 596.751L973.994 598.439L973.539 599.997L975.552 600.127L975.422 601.426L973.734 602.919Z" fill="#D9D9D9" stroke="black" stroke-miterlimit="10" stroke-linejoin="bevel"/>
<path d="M992.043 604.737L990.096 602.919L991.07 601.036L993.212 602.205L994.9 603.633L995.939 602.399L995.16 600.711L996.913 599.543L995.744 596.556H992.433L990.745 594.348L991.005 590.972L988.278 588.57L988.797 587.856H991.134L993.472 587.142L993.861 584.934H996.394L996.913 587.596L996.264 589.284L998.212 589.739L998.666 587.661V584.934L996.913 583.83L997.887 582.856H1000.48L1001.78 584.155L1000.81 585.518L1001.78 587.336L1002.11 588.505L1000.94 589.804L999.12 590.777L999.056 592.336L1000.68 594.478L1001.26 595.517L998.536 596.037L998.147 597.27L999.056 598.634L998.341 599.867L997.497 600.971L998.731 601.49L997.822 603.568L996.199 603.698L995.679 605.191H993.407L992.043 604.737Z" fill="#D9D9D9" stroke="black" stroke-miterlimit="10" stroke-linejoin="bevel"/>
<path d="M992.674 530.124C992.609 529.864 992.804 527.329 992.804 527.329L994.422 526.549L994.293 524.73L994.228 523.3C994.228 523.3 997.142 521.74 997.207 521.545C997.272 521.35 998.89 519.791 998.89 519.791L999.344 512.902L997.595 508.938C997.595 508.938 996.171 506.013 995.977 505.753C995.782 505.493 997.79 504.519 997.79 504.519L999.668 503.804C999.668 503.804 1001.16 500.294 1001.09 500.035C1001.03 499.775 1000.38 497.955 1000.38 497.955C1000.38 497.955 996.754 496.005 996.43 495.94C996.171 495.875 995.07 492.951 995.07 492.951C995.07 492.951 995.912 488.597 995.718 488.272C995.523 487.947 996.106 484.698 996.106 484.698L993.645 480.603L994.422 478.134L994.681 473.845C994.681 473.845 994.681 471.115 994.552 470.855C994.422 470.595 992.868 468.646 992.868 468.646C992.868 468.646 994.681 466.436 994.681 465.981C994.681 465.526 994.617 464.292 994.617 464.292L995.847 460.652L998.955 457.338L1004.14 456.883L1006.86 456.623L1007.89 453.764L1007.44 451.099C1007.44 451.099 1005.3 449.345 1005.11 449.02C1004.91 448.695 1004.33 447.07 1004.33 447.07L1006.73 441.741L1008.54 437.062C1008.54 437.062 1009.32 435.372 1009.25 434.982C1009.19 434.592 1008.67 431.668 1008.67 431.668L1009.19 428.029L1008.54 424.909L1008.47 423.025H1010.81L1013.4 421.595L1013.98 419.515L1013.14 416.851L1015.27 414.186C1015.27 414.186 1018.45 409.117 1018.58 408.728C1018.71 408.338 1019.22 406.648 1019.22 406.648L1016.12 403.074L1016.31 400.864L1018.12 400.409L1019.03 397.485L1020.65 393.975L1022.78 391.441L1025.5 392.676C1025.5 392.676 1027.12 391.506 1027.12 391.246C1027.12 390.986 1026.41 386.437 1026.41 386.437L1026.67 383.707L1031.53 384.227L1036.84 385.787L1039.49 383.967L1038.07 383.188L1036.84 381.693L1038.07 380.328L1038.91 378.314L1038.2 375.844L1036.58 373.634L1039.1 373.18L1041.76 373.115L1042.08 368.76L1044.22 368.63L1048.23 372.79L1050.5 376.494L1053.35 376.949L1057.49 375.584L1060.73 373.439L1064.03 375.389L1065.59 375.454L1065.91 372.075L1066.88 370.385L1068.5 370.32L1068.11 367.136C1068.11 367.136 1067.34 363.951 1067.27 363.691C1067.21 363.431 1067.21 360.312 1067.21 360.312L1066.69 357.193L1067.85 354.723L1068.63 352.969L1070.44 352.904L1072.26 352.579L1073.88 350.044L1075.95 349.134C1075.95 349.134 1077.37 351.279 1077.37 351.409C1077.37 351.539 1081.39 353.034 1081.39 353.034L1085.34 355.568L1085.66 357.388L1083.72 360.767L1084.82 362.522L1086.76 364.016L1088.06 358.167L1090 354.268L1089.55 352.839L1087.93 351.539L1085.79 351.019L1085.4 348.874L1081 348.224L1081.91 346.21L1084.75 346.08L1087.86 343.675V339.971C1087.86 339.971 1084.43 337.177 1083.85 337.047C1083.33 336.917 1082.36 338.216 1082.36 338.216L1079.44 337.956L1077.05 335.292L1075.17 338.346L1076.08 342.181L1072.9 341.791L1072 339.906L1073.75 334.577H1070.44L1069.41 337.632V340.816L1068.37 344.39L1066.24 344.26V340.231L1063.84 341.401L1061.83 346.47L1060.21 350.044L1058.46 345.755L1060.73 340.686L1058.46 338.801L1055.55 341.596V344.52L1053.8 345.69H1049.53L1049.79 348.874L1050.69 351.799V355.958C1050.69 355.958 1048.82 353.423 1048.43 353.163C1048.04 352.904 1042.99 352.384 1042.99 352.384L1041.24 355.048L1044.8 356.803V359.727L1040.53 358.687L1037.87 360.572L1033.47 361.482L1028.81 364.796V366.681L1028.03 370.385L1026.28 368.241L1022.46 369.28L1020.58 372.855L1023.95 374.609L1022.27 377.534C1022.27 377.534 1022.27 380.718 1022.27 381.108C1022.27 381.498 1019.87 381.758 1019.87 381.758C1019.87 381.758 1016.31 379.223 1015.6 378.833C1014.88 378.443 1013.65 380.133 1013.65 380.133L1011.13 380.913L1010.48 384.617H1015.01L1016.5 387.802V390.726V393.521L1013.07 395.405L1011.06 397.55L1013.07 399.304L1011.45 401.579L1009.45 402.749L1010.81 405.673L1007.37 406.713V409.637L1002.84 411.782L1003.49 414.316L999.927 414.836L997.919 417.631L999.797 420.295C999.797 420.295 1002.32 422.18 1001.93 422.18C1001.55 422.18 999.538 423.935 999.538 423.935V427.119L996.883 428.159L997.401 431.733H995.135L994.099 435.177L996.754 436.672L998.372 438.037L994.811 441.741L992.286 442.521C992.286 442.521 989.501 446.095 989.501 446.68C989.501 447.2 991.638 448.825 991.638 448.825L988.854 450.839L985.551 449.474L982.637 453.049L981.601 456.363L978.558 458.508L979.335 461.562L981.213 463.317L984.904 461.562L987.429 457.728L989.048 458.638L985.875 464.876L983.479 466.761L980.047 468.776L976.744 464.941L974.996 467.866C974.996 467.866 972.212 466.371 971.823 466.371C971.435 466.371 968.65 468.646 968.65 468.646L969.168 472.935L968.65 475.989L965.736 473.585C965.736 473.585 961.333 473.715 960.167 473.585C959.002 473.455 958.678 475.079 958.678 475.079L961.203 478.784H956.541L958.807 482.098L956.412 482.748L953.498 485.412L950.066 484.048C950.066 484.048 949.289 488.077 949.677 488.337C950.066 488.597 955.116 491.261 955.116 491.261C955.116 491.261 949.159 491.261 948.188 490.871C947.281 490.481 943.784 489.247 943.784 489.247C943.784 489.247 943.525 493.081 943.914 493.406C944.302 493.666 946.439 496.72 946.439 496.72C946.439 496.72 943.396 497.63 943.007 497.63C942.619 497.63 941.842 499.905 941.842 499.905L947.929 500.684L954.145 501.464L955.311 504.649L951.037 502.894C951.037 502.894 947.216 503.674 946.634 503.544C946.116 503.414 942.489 502.894 942.489 502.894L941 506.078C941 506.078 943.655 509.783 944.043 509.783C944.432 509.783 944.691 512.447 944.691 512.447L944.821 516.606L948.123 515.956L950.26 517.711L947.993 519.466L947.605 522.78L944.303 525.185L942.813 528.759C942.813 528.759 946.245 527.394 946.957 527.589C947.605 527.719 950.648 530.319 950.648 530.319L948.253 533.698L943.59 537.207L942.23 542.081L946.245 544.226L949.418 547.28L952.462 547.93L951.555 550.854C951.555 550.854 954.728 551.244 955.57 551.504C956.347 551.764 960.103 551.244 960.103 551.244L962.304 549.23L965.93 548.71L967.549 545.915C967.549 545.915 969.945 544.876 970.075 544.291C970.204 543.706 971.823 541.756 971.823 541.756L973.183 538.832L974.867 537.207L975.838 534.153L978.493 537.077L981.536 534.413L981.795 530.773L980.759 526.419H982.249L983.867 522.715L985.486 530.254L986.263 533.633H989.695L990.861 536.232L992.35 538.832L994.099 533.633C993.84 533.958 992.739 530.384 992.674 530.124Z" fill="#D9D9D9" stroke="black" stroke-miterlimit="10" stroke-linejoin="bevel"/>
<path d="M829.579 598.842L828.14 599.484L828.729 601.281C828.729 601.281 828.206 603.462 828.271 603.655C828.336 603.847 829.121 605.387 829.121 605.387L828.009 607.761L827.682 609.686L828.533 613.343L827.355 616.103L822.122 622.776L821.925 624.636C821.925 624.636 820.682 625.663 820.421 625.535C820.224 625.406 818.654 624.893 818.654 624.893H815.907L813.551 624.251C813.551 624.251 810.804 624.059 810.28 623.931C809.757 623.802 809.757 624.829 809.757 624.829L808.645 626.048C808.645 626.048 807.009 625.791 806.748 625.791C806.486 625.791 805.374 627.46 805.243 627.652C805.112 627.845 803.411 627.331 803.215 627.139C803.019 626.946 801.972 625.342 801.972 625.342L801.121 626.176L801.187 627.909L800.075 629L798.047 628.358L796.935 629.577C796.935 629.577 794.776 628.871 794.514 628.679C794.252 628.486 792.682 628.101 792.682 628.101L790.72 629.321L791.047 628.101L788.626 628.679L787.187 628.23L790.393 626.305V625.406L787.514 624.957H786.14L787.056 624.187H790.196L790.785 622.583L787.645 622.519L784.897 623.353L783.327 622.519L783 621.364L783.85 620.273L786.075 619.567L789.084 619.118L789.477 618.156L787.645 617.707C787.645 617.707 785.551 617.258 785.355 617.001C785.159 616.744 784.832 615.782 784.832 615.782L786.991 615.461L789.411 617.065L790.589 616.231L789.411 614.049H791.832L792.29 613.023L794.71 613.279C794.71 613.279 796.935 613.985 797.131 614.049C797.327 614.113 801.907 613.536 801.907 613.536L800.009 612.124L799.159 610.777L797.916 612.124L794.514 611.739L793.533 610.264L794.972 609.814L796.673 608.082C796.673 608.082 796.608 607.184 796.608 606.927C796.608 606.67 797.654 605.259 797.654 605.259H799.355H801.645L801.907 603.526L798.636 602.5L796.804 601.986L796.28 599.741L793.794 598.457H791.178L791.636 596.468L793.86 596.019L795.234 594.03L797.72 594.543L799.421 594.03L799.29 592.105L797.916 591.72C797.916 591.72 797.393 590.18 797.393 589.923C797.393 589.667 797.785 588.383 797.785 588.383L796.28 586.523L799.748 585.881L802.953 586.715L803.215 588.512L804.72 589.218L806.093 588.063L808.383 589.988L810.215 591.078L810.15 589.282L810.084 587.164L812.963 587.036L814.925 586.074L815.383 584.726L812.636 583.892L810.542 583.507L809.757 582.288L811.327 582.095L813.813 581.839L814.598 580.363L813.813 578.117L815.972 576.577L818.523 577.475L822.187 578.438L820.421 580.106C820.421 580.106 821.206 581.133 821.402 581.133C821.598 581.133 823.168 579.208 823.168 579.208L824.15 580.94L821.533 584.149H818.262L819.57 586.715L814.336 587.998L816.299 592.49L820.224 594.415L822.841 594.03V591.784L824.804 590.565L826.047 593.966L827.421 595.057L826.766 597.623H829.383L832 598.265L829.579 598.842Z" fill="#D9D9D9" stroke="black" stroke-miterlimit="10" stroke-linejoin="bevel"/>
<path d="M992.043 538.706L993.796 533.511C993.796 533.511 992.693 529.94 992.628 529.681C992.563 529.421 992.758 526.889 992.758 526.889L994.381 526.11L994.251 524.292L994.186 522.863C994.186 522.863 997.108 521.305 997.173 521.11C997.238 520.916 998.861 519.357 998.861 519.357L999.315 512.475L997.562 508.514C997.562 508.514 996.134 505.593 995.939 505.333C995.744 505.073 997.757 504.099 997.757 504.099L999.64 503.385C999.64 503.385 1001.13 499.879 1001.07 499.619C1001 499.36 1000.35 497.542 1000.35 497.542C1000.35 497.542 996.718 495.594 996.394 495.529C996.134 495.464 995.03 492.542 995.03 492.542C995.03 492.542 995.874 488.192 995.679 487.868C995.485 487.543 996.069 484.297 996.069 484.297L993.602 480.206L994.381 477.739L994.641 473.454C994.641 473.454 994.641 470.727 994.511 470.467C994.381 470.207 992.823 468.26 992.823 468.26C992.823 468.26 994.641 466.052 994.641 465.598C994.641 465.143 994.576 463.909 994.576 463.909L995.809 460.273L998.926 456.962L1004.12 456.508L1006.85 456.248L1007.89 453.391L1007.43 450.729C1007.43 450.729 1005.29 448.976 1005.09 448.651C1004.9 448.327 1004.31 446.704 1004.31 446.704L1006.72 441.38L1008.53 436.705C1008.53 436.705 1009.31 435.017 1009.25 434.627C1009.18 434.238 1008.66 431.316 1008.66 431.316L1009.18 427.68L1008.53 424.563L1008.47 422.681H1010.81L1013.4 421.252L1013.99 419.175L1013.14 416.512L1015.29 413.85C1015.29 413.85 1018.47 408.786 1018.6 408.397C1018.73 408.007 1019.25 406.319 1019.25 406.319L1016.13 402.748L1016.33 400.54L1018.14 400.086L1019.05 397.164L1020.68 393.658L1022.82 391.126L1025.55 392.36C1025.55 392.36 1027.17 391.191 1027.17 390.931C1027.17 390.671 1026.45 386.127 1026.45 386.127L1026.71 383.4L1031.58 383.919L1036.91 385.477L1039.57 383.659L1038.14 382.88L1036.91 381.387L1038.14 380.023L1038.99 378.011L1038.27 375.543L1036.65 373.336L1039.18 372.881L1041.84 372.816V374.764L1043.86 376.907L1048.53 380.218L1053.85 381.841L1056.78 383.594L1058.79 385.218L1060.28 387.49V390.282L1060.8 394.827L1063.07 395.476V397.489V399.502C1063.07 399.502 1065.22 401.904 1065.35 402.293C1065.48 402.683 1066.97 404.826 1066.97 404.826L1065.35 410.02L1067.75 415.214L1070.02 418.655V420.668L1066.71 419.889L1064.7 419.759L1064.05 422.291H1061.13L1058.72 420.668L1058.85 423.59L1056.45 423.719C1056.45 423.719 1057.81 426.122 1057.81 426.511C1057.81 426.901 1057.3 428.394 1057.3 428.394L1054.11 429.173C1054.11 429.173 1053.98 430.537 1054.24 430.926C1054.5 431.316 1056.13 432.939 1056.13 432.939C1056.13 432.939 1055.09 435.471 1054.96 435.991C1054.83 436.51 1053.08 438.912 1053.08 438.912L1055.22 441.574L1058.14 443.327L1056.78 445.989L1055.28 449.56L1053.92 454.365L1051.65 455.794L1050.28 457.936L1048.66 458.975L1046 460.728L1045.61 462.091C1045.61 462.091 1043.73 464.104 1043.73 464.494C1043.73 464.883 1041.32 466.247 1041.32 466.247L1039.7 469.688L1038.53 472.999L1036.13 473.129L1036.91 476.051L1035.28 477.934H1032.75L1032.36 480.206L1034.51 482.219L1034.12 486.244L1033.21 488.257L1035.48 491.309L1032.82 491.179L1031.91 492.932L1033.4 495.075L1033.66 500.528L1034.05 504.099C1034.05 504.099 1035.09 506.632 1035.09 507.151C1035.09 507.67 1038.27 508.19 1038.27 508.19L1040.54 508.06L1041.71 510.592L1044.76 512.345H1046.78L1046.26 514.747L1048.27 515.786L1050.28 517.929L1050.67 520.072L1048.14 521.11L1045.48 525.915L1041.91 526.045L1040.15 521.63L1038.27 521.5L1039.31 524.162L1038.66 525.785L1035.22 523.513L1032.56 524.552L1029.51 526.045L1029.77 527.928L1033.34 527.538L1037.88 528.707L1038.01 530.135L1041.32 529.421L1043.47 527.928L1046.39 528.967L1045.87 531.499L1043.73 533.641L1040.93 531.499L1040.8 534.81L1039.89 537.212L1036.32 538.706L1036.06 540.069H1031.06L1034.83 541.562V543.315L1033.66 544.095L1035.8 547.146L1035.54 549.549L1034.05 551.951L1035.22 554.353L1035.48 556.885L1034.57 558.768V562.079C1034.57 562.079 1034.57 564.352 1034.7 564.742C1034.83 565.131 1037.49 568.183 1037.49 568.183L1036.13 570.325L1034.51 574.74C1034.51 574.74 1031.97 576.363 1031.97 577.272C1031.97 578.181 1031 580.259 1031 580.259L1027.62 579.155L1024.7 580.259H1020.29L1020.16 582.921H1018.27L1017.24 585.908L1017.49 589.609L1017.37 592.141H1014.57H1012.04L1008.47 594.024L1006.85 591.492C1006.85 591.492 1006.98 588.18 1006.59 587.921C1006.2 587.661 1003.28 583.895 1003.28 583.895L1002.17 579.48L1004.12 578.961V576.623L1004.9 574.026L1002.17 572.663L1001.59 569.481L998.926 567.339L997.303 563.897L995.225 561.106V557.535L993.537 555.782L994.446 552.211L995.809 549.029L994.446 546.367L992.043 547.731L989.641 547.341L990.29 543.9L989.641 538.576V537.212L992.043 538.706Z" fill="#D9D9D9" stroke="black" stroke-miterlimit="10" stroke-linejoin="bevel"/>
<path d="M1051.26 562.015L1049.7 557.47V553.055L1053.27 549.029H1055.48L1053.85 552.86L1053.46 555.522H1055.48L1054.05 558.444L1051.26 562.015Z" fill="#D9D9D9" stroke="black" stroke-miterlimit="10" stroke-linejoin="bevel"/>
<path d="M1056.65 514.877L1052.56 511.696L1055.48 509.878H1057.88L1060.09 512.41V514.877H1056.65Z" fill="#D9D9D9" stroke="black" stroke-miterlimit="10" stroke-linejoin="bevel"/>
<path d="M1032.3 900.156L1034.7 901.39V903.662H1038.14L1040.15 901.909L1038.79 900.156H1036.19L1032.3 898.922V900.156Z" fill="#D9D9D9" stroke="black" stroke-miterlimit="10" stroke-linejoin="bevel"/>
<path d="M1030.29 900.091L1029.38 899.636V898.468L1030.03 897.429L1031.06 898.143L1030.87 899.636L1030.29 900.091Z" fill="#D9D9D9" stroke="black" stroke-miterlimit="10" stroke-linejoin="bevel"/>
<path d="M1016.13 737.448L1018.01 738.357L1019.18 739.786L1017.43 741.668L1019.18 743.292L1017.88 745.369L1013.99 745.239L1014.18 747.252L1010.48 747.966L1007.76 750.174L1005.29 750.369L1003.8 751.862L1003.67 754.654L1004.38 756.667L1006.59 758.16L1007.17 759.978L1004.96 760.952L1004.18 763.938L1004.9 767.769L1006.98 771.145L1011 774.327L1015.42 778.547L1019.18 780.17L1021.52 781.729L1024.12 787.832L1025.29 793.545L1030.09 799.648L1033.66 800.947L1035.54 803.349L1038.86 805.232L1044.5 805.037H1047.36L1050.67 804.128L1052.36 805.297L1050.74 806.985L1049.31 809.193L1050.22 811.66L1052.43 813.478L1058.72 815.491L1064.89 816.4L1067.62 818.997L1070.8 820.166L1075.6 821.983L1076.51 824.061L1078.92 825.684L1081.9 827.762V829.84L1081.32 831.917L1080.73 834.644L1078.27 833.541L1076.25 830.619L1075.73 827.502C1075.73 827.502 1073.66 826.983 1073.33 826.983C1073.01 826.983 1068.66 827.308 1068.66 827.308L1066.9 825.035L1063.27 825.425L1059.76 831.723L1059.05 834.839L1058.53 838.215L1060.35 840.033L1062.62 839.709L1065.09 841.721L1066.84 843.15V845.747L1067.62 848.669L1064.05 850.876L1060.93 852.175L1060.35 855.096L1060.93 858.797L1058.92 859.511L1057.04 862.109L1056.06 865.809L1053.08 866.913L1050.48 865.03C1050.48 865.03 1050.28 862.823 1050.28 862.433C1050.28 862.044 1053.08 860.81 1053.08 860.81L1053.4 858.343L1052.49 856.655L1052.88 855.031L1056.39 853.863L1057.1 851.785L1055.67 849.772L1054.24 846.461L1053.53 843.085L1050.54 841.202V838.28L1049.11 834.19H1047.23L1043.66 833.605L1041.26 832.696L1039.44 830.879L1040.15 828.281L1037.88 825.295H1035.8L1032.69 826.723L1034.31 823.996L1030.81 822.503L1028.6 823.217L1025.87 818.218L1022.88 816.335L1020.48 816.53L1017.49 816.01L1015.81 816.984L1013.79 814.647L1010.68 813.478L1007.76 810.686L1005.55 809.972L1005.22 807.375L1002.95 804.908L1000.03 803.999L997.432 799.713H992.823L993.147 796.792L990.55 794.519L988.278 793.74L987.953 791.013H984.837L985.746 787.832L984.837 784.91L982.369 781.209L981.785 775.69L978.668 772.898L975.357 772.769L970.552 768.873L967.761 767.964L965.293 767.055L961.593 768.873L961.073 771.145L958.671 772.184L955.489 776.924L950.944 777.573L952.438 773.678L952.892 771.73H948.997L944.452 768.483L943.802 765.886L946.27 762.315L945.101 760.043L941.205 756.796L943.153 755.498L944.452 756.147L947.698 751.602L945.75 750.304V747.707L943.153 745.759L946.4 743.811L948.542 744.395L951.204 742.902H953.671L955.23 744.006L958.736 740.565L957.957 738.097L961.982 735.565L962.437 737.643L962.112 739.461L965.683 741.084L966.137 743.357C966.137 743.357 967.631 745.239 967.761 745.369C967.89 745.499 968.929 744.46 968.929 744.46L968.28 742.318L970.877 738.617L971.267 735.241L972.89 735.111L973.799 737.903L975.552 738.292L976.98 736.474L978.928 736.799L980.032 739.526L980.811 737.708L980.486 734.461L980.811 732.644L982.694 734.721L984.447 733.682L983.083 731.54L984.707 730.241L987.304 729.592L989.252 730.89L992.498 727.644H998.991L1002.89 725.696L1002.5 728.293L1004.18 728.943L1004.96 730.89L1010.68 732.838L1020.42 734.137L1016.13 737.448Z" fill="#D9D9D9" stroke="black" stroke-miterlimit="10" stroke-linejoin="bevel"/>
<path d="M1048.4 862.693L1046.97 866.329L1045.02 870.289L1043.66 873.99L1043.99 877.237L1045.02 878.405C1045.02 878.405 1045.02 879.769 1045.02 879.964C1045.02 880.158 1046.71 880.873 1046.71 880.873L1045.54 882.106L1044.63 883.08L1044.57 886.586C1044.57 886.586 1042.1 886.002 1041.91 885.937C1041.71 885.872 1039.83 886.586 1039.83 886.586L1037.43 885.807L1035.03 882.95L1032.95 880.743L1028.27 880.678L1025.81 879.899L1023.99 878.34L1021.78 877.951L1019.44 875.873L1017.04 874.575H1014.38H1012.5L1011.13 872.432L1010.16 870.16L1011.07 866.653L1013.27 865.225L1014.9 867.498L1016.91 867.562L1018.66 865.225L1020.35 864.706L1021.59 865.809L1023.53 866.653L1024.57 868.082L1027.56 867.887L1030.09 866.394L1032.56 867.043L1036.06 866.329L1038.53 863.797L1040.93 863.602L1042.04 864.771L1044.12 864.251L1045.48 862.888L1046.71 862.498H1048.4V862.693Z" fill="#D9D9D9" stroke="black" stroke-miterlimit="10" stroke-linejoin="bevel"/>
<path d="M962.502 855.096L965.034 853.863L966.202 852.175L966.657 849.123L967.696 848.344L970.877 849.902L972.63 850.941L973.734 848.344L974.513 843.929V838.54L975.227 836.332L974.643 834.839L973.929 833.346L975.292 830.814L976.656 829.71V827.243L974.838 825.814V823.996L972.306 823.347L973.215 821.594H975.227L974.124 819.711L970.682 818.607L968.929 818.997L965.748 821.789L962.502 823.801L960.099 824.386L958.151 823.282L956.723 825.49V827.827L958.866 828.087L959.71 831.073C959.71 831.073 960.619 833.865 960.684 834.125C960.749 834.385 960.424 836.268 960.424 836.268L959.45 836.852L959.839 838.8L961.463 838.865L961.398 839.968L960.424 840.293L961.008 842.76L960.294 845.033L958.866 846.786C958.866 846.786 958.931 848.798 959.06 849.123C959.19 849.448 960.813 851.266 960.813 851.266L961.852 852.434L962.502 855.096Z" fill="#D9D9D9" stroke="black" stroke-miterlimit="10" stroke-linejoin="bevel"/>
<path d="M1171.76 788.546L1172.41 787.247L1175.01 786.598V784.001H1177.61L1180.85 780.755L1186.05 782.702L1188.64 780.105L1190.59 780.56V783.871L1192.99 785.949L1196.24 787.247L1201.82 788.091L1204.81 787.962V790.364V791.857L1203.12 792.636L1200.14 793.286L1198.58 792.571H1195.4L1193.19 794.454L1191.69 795.558H1189.1L1187.54 797.181L1186.83 801.531L1182.99 803.739L1181.44 805.622L1177.93 810.232H1175.14L1177.93 808.024L1180.4 805.232L1180.14 803.869L1174.16 806.076L1171.76 805.557L1172.93 803.025L1174.36 800.428L1173.52 797.376L1173.9 795.168L1176.24 794.195L1177.22 792.247L1175.33 789.78L1171.76 788.546Z" fill="#D9D9D9" stroke="black" stroke-miterlimit="10" stroke-linejoin="bevel"/>
<path d="M1206.37 791.987V790.104L1206.95 787.832H1210.98L1216.89 787.312L1219.29 784.326L1223.57 785.299L1227.34 784.715L1229.61 783.417H1231.43L1232.21 781.014V778.872L1234.94 776.859L1239.55 770.561L1243.31 766.99L1246.62 765.302L1248.7 762.315L1253.57 760.887L1257.34 760.173L1263.5 758.549L1267.72 756.861L1269.02 753.94H1271.04V756.861L1273.24 758.485L1277.27 758.679L1280.26 756.212L1281.88 756.991L1283.31 756.277L1285.58 759.848L1287.98 760.562C1287.98 760.562 1289.61 759.653 1289.86 759.458C1290.19 759.264 1292.07 757.251 1292.07 757.251C1292.07 757.251 1295.77 757.835 1296.1 757.965C1296.42 758.095 1297.59 759.264 1297.59 759.264L1300.32 758.939L1302.59 759.069L1304.21 756.277L1305.32 758.16L1310.84 758.29L1314.41 755.887L1318.5 752.706L1320.19 751.083L1322.07 750.693L1322.85 748.616L1326.22 749.589L1328.95 748.616H1332.46L1335.64 744.006L1338.56 740.5L1341.87 736.799L1342.85 733.098L1347.26 732.514L1348.04 730.436L1350.96 729.722L1354.66 728.813L1354.27 726.345L1356.55 725.372L1357.45 726.8L1360.57 726.67L1362.58 727.774V728.878L1365.38 727.774L1366.48 728.683V730.111L1371.54 731.605L1372.52 734.721L1372 738.292L1373.43 740.11L1375.11 741.993L1378.82 741.603L1382.13 740.5L1386.35 739.915L1389.92 742.188L1386.74 742.383V744.85L1387.32 747.836L1385.63 749.135L1383.75 750.239L1384.33 751.213L1386.8 752.836L1387.58 755.628L1389.27 757.316L1390.76 759.329L1392.45 762.9L1394.85 762.77L1395.24 764.782V768.548V771.275L1398.75 770.951L1400.57 772.054L1401.15 774.522L1403.16 775.95L1406.08 777.054L1406.47 778.742L1404.07 779.066L1403.29 781.858L1401.22 784.131L1400.05 780.819L1398.75 779.846L1396.67 780.235L1396.35 782.248L1394.92 783.417L1390.44 784.131L1386.54 784.52L1384.53 786.533H1382.26L1381.74 789C1381.74 789 1381.61 790.623 1381.22 790.883C1380.83 791.143 1379.14 791.987 1379.14 791.987L1377.13 790.494L1375.63 791.987L1373.04 795.103L1369.86 797.506L1362.97 799.713L1360.25 801.726L1355.96 806.206L1351.94 811.595L1345.96 815.166L1340.44 817.893L1336.22 817.114L1332.91 816.594L1329.02 819.776L1325.7 823.801L1321.81 825.489L1319.34 827.307L1317.46 825.425L1314.34 825.814L1313.56 826.593L1314.08 830.878L1315.97 833.67L1316.94 835.099L1313.76 836.008L1313.89 838.929L1312.59 840.553V843.345L1309.86 842.76L1309.67 840.293L1306.88 838.605L1306.42 836.008L1308.95 832.437L1309.73 830.229L1307.66 828.216L1305.58 826.593L1304.28 828.801L1301.29 831.722L1303.11 833.93L1300.9 834.644L1299.6 836.332L1296.42 835.553L1291.55 834.839L1287.66 837.241L1285.38 842.111L1284.67 844.903L1285 846.526L1282.72 845.617L1281.42 848.214L1279.74 849.188L1278.76 850.162L1274.87 851.071L1273.44 852.759H1271.23L1270.13 854.902H1267.14L1264.22 852.954L1260.71 850.032L1253.51 848.928L1246.88 848.733L1241.3 849.707L1239.68 851.006L1240.39 853.603L1240.52 854.902L1239.94 857.434L1240.71 859.901H1237.99L1234.87 861.524L1231.76 864.511L1229.03 863.926L1224.35 863.147L1222.92 861.979L1222.6 858.797L1220.91 857.174L1218.51 857.499L1218.64 859.576L1216.24 859.057L1215.52 856.849L1213.64 856.33L1212.34 858.148L1210.72 861.07L1208.9 859.187L1207.99 858.213L1210.72 857.239L1211.43 855.031H1208.84L1205.26 856.979L1202.15 857.888L1198.25 858.083L1196.76 856.979L1200.85 856.005L1201.76 854.122L1200.14 853.408L1198.32 851.785L1196.11 853.278V850.292L1193.38 849.188L1194.88 848.214L1195.66 845.747L1194.16 844.448L1191.57 843.539L1189.88 843.864L1188.12 841.851L1185.66 843.28L1183.06 842.306L1181.63 841.721L1184.03 839.903L1182.41 836.138L1184.49 837.826L1185.92 840.293L1191.89 837.566L1190.72 836.397L1188.64 836.787L1186.44 835.293L1187.02 833.281L1189.42 830.878L1188.06 829.58L1186.18 829.255L1186.7 827.437L1184.42 826.139L1184.29 823.866L1185.07 821.139L1176.89 824.061L1175.59 822.892L1176.18 821.009L1175.59 817.828L1176.57 815.621L1177.87 812.634L1179.49 810.621L1181.11 808.608L1184.62 806.79L1186.83 805.816L1188.71 807.829L1192.08 806.855L1193.71 805.037L1193.38 803.349H1195.07L1195.79 805.557L1199.36 803.739L1203.64 802.57L1208.32 802.181L1208.45 800.298L1204.55 800.103L1208.58 797.506L1211.95 795.623L1215.85 794.519L1216.82 792.831L1212.41 793.35L1210.33 794.454L1208.64 792.961L1206.37 791.987Z" fill="#D9D9D9" stroke="black" stroke-miterlimit="10" stroke-linejoin="bevel"/>
<path d="M1126.38 541.822V536.693V533.317L1123.13 530.785V526.11L1119.89 521.045L1121.83 518.448L1123.13 513.254L1123.78 511.306L1120.73 512.41L1114.17 512.93L1107.03 512.995L1105.15 513.514L1103.52 513.579L1101.51 515.981L1098.78 516.046L1097.23 516.306L1096.77 517.669L1093.46 517.799L1092.03 518.968C1092.03 518.968 1091.77 520.331 1092.03 520.526C1092.29 520.721 1091.32 522.084 1091.32 522.084L1088.07 522.928C1088.07 522.928 1087.75 524.552 1087.75 524.746C1087.75 524.941 1088.85 525.785 1088.85 525.785L1089.89 526.629L1089.37 528.577L1088.98 530.46L1090.67 532.083L1092.03 534.291L1092.42 536.044L1095.6 536.238L1097.29 534.485L1098.98 533.771L1099.76 535.394L1098.98 536.823L1099.37 540.394C1099.37 540.394 1098.65 541.108 1098.65 541.368C1098.65 541.627 1100.08 542.407 1100.08 542.407L1103.39 538.901L1105.08 538.186L1106.06 539.03L1107.09 537.342L1109.11 539.42L1110.67 538.641L1111.64 540.264L1113.26 539.809L1114.63 542.017L1118.59 543.705L1120.99 541.238L1124.5 542.212L1126.38 541.822Z" fill="#D9D9D9" stroke="black" stroke-miterlimit="10" stroke-linejoin="bevel"/>
<path d="M1081.32 531.823L1080.86 529.746L1079.31 529.291L1081.32 527.798L1082.1 526.889L1082.94 527.408L1085.02 527.993V529.356H1083.66L1083.79 531.823H1081.32Z" fill="#D9D9D9" stroke="black" stroke-miterlimit="10" stroke-linejoin="bevel"/>
<path d="M1078.01 539.355V536.758L1079.83 536.044L1081.64 533.966H1085.08L1086.71 535.135L1085.93 536.628L1085.54 538.511L1083.72 538.901L1081.38 540.394L1080.93 543.9C1080.93 543.9 1079.11 543.316 1079.37 543.121C1079.63 542.926 1079.96 540.524 1079.96 540.524L1078.01 539.355Z" fill="#D9D9D9" stroke="black" stroke-miterlimit="10" stroke-linejoin="bevel"/>
<path d="M1077 575.237H1078.43V572.738L1084.78 569.087L1087.7 568.83L1090.62 568.126L1093.08 568.702L1094.96 567.549L1097.68 567.933L1099.56 566.844L1102.22 567.741C1102.22 567.741 1103.97 566.396 1104.3 566.396C1104.62 566.396 1105.33 567.229 1105.53 567.293C1105.72 567.357 1108.38 563.577 1108.38 563.577L1109.61 564.602L1111.49 567.229L1116.03 566.46L1118.95 568.382L1122.19 570.688L1126.28 572.29V576.774L1127.64 577.671H1129L1128.55 580.874L1125.04 580.426L1124.66 582.924L1123.42 584.782L1121.74 587.088L1121.93 588.946L1122.19 591.316L1121.54 594.007L1123.16 594.583L1124.33 596.121C1124.33 596.121 1122.71 597.658 1122.52 597.722C1122.32 597.787 1121.48 595.929 1121.48 595.929L1119.73 596.121L1118.5 597.466L1118.3 598.94L1115.77 599.516L1115.9 601.054L1114.54 602.015L1113.18 603.488L1111.49 604.129L1109.48 603.168L1106.44 604.577H1103.97L1103.52 602.015L1101.96 600.093L1099.11 600.029L1097.75 598.555L1096.13 599.132L1094.9 596.121L1095.61 592.79L1095.41 590.868L1093.47 590.355L1092.5 589.138L1089.97 589.266L1088.41 590.163L1086.08 589.074L1082.77 588.69L1080.89 587.344L1079.72 584.205L1078.69 581.066L1077.06 579.08V575.237H1077Z" fill="#D9D9D9" stroke="black" stroke-miterlimit="10" stroke-linejoin="bevel"/>
<path d="M1103.92 604.739L1103.47 602.144L1101.9 600.199L1099.04 600.134L1097.67 598.642L1096.05 599.226L1094.61 600.458L1091.03 601.625L1082.7 602.663H1077.3L1071.57 602.793L1068.19 602.209L1065.26 604.674L1061.03 605.257L1057.64 604.349L1055.82 600.263L1054.52 598.577H1051.2L1046.97 600.717L1042.47 603.506L1039.29 604.285L1037.46 606.555L1036.36 609.473L1031.86 610.9C1031.86 610.9 1026.85 612.197 1026.53 612.327C1026.2 612.456 1020.8 616.218 1020.8 616.218H1018V619.137L1019.5 623.417L1020.99 627.309C1020.99 627.309 1019.17 629.579 1019.11 629.903C1018.98 630.227 1018 633.275 1018 633.275C1018 633.275 1019.17 634.378 1019.43 634.702C1019.63 635.027 1023.66 636.778 1023.66 636.778L1022.36 639.761L1023.66 642.355L1025.03 645.144L1024.83 647.22L1024.25 649.23L1025.16 651.5L1024.77 653.9L1027.7 654.289L1028.22 659.478V663.174L1030.3 661.748L1031.8 663.174L1033.3 664.601L1037.33 665.315L1038.83 666.936H1041.3L1042.93 666.417L1042.21 668.428L1042.08 670.503L1044.56 672.514L1046.45 674.589L1048.14 673.487L1049.31 672.384L1048.2 669.79L1049.63 669.206L1051.91 671.022L1055.1 671.346L1056.99 670.438L1056.86 672.125L1055.75 672.838L1057.58 673.616L1058.36 675.043H1060.77H1062.2H1065.13L1066.75 677.637L1067.47 679.324H1069.1L1069.62 681.464L1071.18 682.307L1071.96 683.41L1074.04 681.464L1075.74 678.935L1077.04 681.464L1079.45 682.307L1079.64 684.577H1081.92L1083.81 683.085L1085.89 680.491L1087.71 680.686L1090.51 681.399H1092.73L1093.12 679.064L1096.83 678.545L1101.32 679.453L1102.82 681.399L1106.53 682.242L1111.93 682.567L1110.63 680.751L1109.72 679.064L1108.41 676.146L1108.8 673.681L1115.51 660.71L1119.02 658.699L1120 656.3L1118.31 653.576L1117.59 652.149L1119.22 651.63L1113.23 646.312L1112.51 643.523L1111.34 641.447L1110.82 636.972L1110.69 633.989L1108.41 632.173L1105.48 631.978V629.384L1109.06 626.206L1112.06 623.223L1111.34 619.526L1107.57 612.132L1105.48 609.019L1103.92 604.739Z" fill="#D9D9D9" stroke="black" stroke-miterlimit="10" stroke-linejoin="bevel"/>
<path d="M1112.07 814.329L1110.88 813.024L1109.55 814.329L1104.91 808.457L1105.57 806.499L1103.59 804.542L1105.57 803.889L1104.25 801.932V798.669V794.559L1101.6 792.797L1099.61 792.145L1097.62 788.882L1094.3 790.84L1092.98 787.577L1089 795.407V796.712L1090.33 798.017L1089.66 800.627H1092.65L1093.11 802.258L1092.85 803.693L1093.51 804.476L1091.59 805.194L1091.25 807.217L1091.32 808.457L1092.71 809.24L1092.51 813.089L1093.71 814.068V815.83L1092.18 816.156L1091.65 818.896L1091.78 820.397C1091.78 820.397 1093.84 822.159 1093.91 822.289C1093.97 822.42 1094.3 823.464 1094.3 823.464H1091.59L1092.38 824.703L1096.03 826.726C1096.03 826.726 1098.48 827.379 1098.75 827.705C1099.01 828.031 1100.27 830.054 1100.27 830.184C1100.27 830.315 1101.86 830.771 1101.86 830.771L1101.6 833.055L1103.65 833.577L1105.24 832.925L1105.51 831.489C1105.51 831.489 1106.97 831.359 1106.97 831.228C1106.97 831.098 1106.44 829.662 1106.44 829.662L1105.38 828.488L1106.64 827.379L1109.09 826.335L1109.69 824.051L1110.22 820.658L1111.41 819.875L1112.47 818.701L1113 816.352L1112.07 814.329Z" fill="#D9D9D9" stroke="black" stroke-miterlimit="10" stroke-linejoin="bevel"/>
<path d="M1115.21 857.109L1112.22 856.265L1110.8 853.214L1111.9 851.59L1113 854.772L1115.73 855.811L1115.21 857.109Z" fill="#D9D9D9" stroke="black" stroke-miterlimit="10" stroke-linejoin="bevel"/>
<path d="M1150.34 845.228L1153.78 844.383L1156.63 846.201V842.63L1154.43 840.942L1149.95 841.332L1146.25 839.514L1143.84 837.306L1141.77 839.124L1146.05 841.137L1149.23 843.085L1150.34 845.228Z" fill="#D9D9D9" stroke="black" stroke-miterlimit="10" stroke-linejoin="bevel"/>
<path d="M1161.05 850.227L1157.93 848.798L1158.84 847.5L1161.96 848.084L1161.05 850.227Z" fill="#D9D9D9" stroke="black" stroke-miterlimit="10" stroke-linejoin="bevel"/>
<path d="M1141.38 820.945L1145.14 823.152L1146.64 820.945L1148.78 821.334L1149.23 819.646L1153.13 818.413L1151.57 815.945L1150.79 817.763L1147.28 818.607L1146.18 820.036L1141.38 820.945Z" fill="#D9D9D9" stroke="black" stroke-miterlimit="10" stroke-linejoin="bevel"/>
<path d="M1118.98 859.706L1121.7 860.68L1122.48 862.693L1125.4 863.212L1127.87 866.329V868.796L1126.44 869.9L1127.16 872.172C1127.16 872.172 1128.59 872.887 1128.85 873.276C1129.11 873.666 1129.43 876.587 1129.43 876.587L1131.31 876.003V873.016V871.328L1133.91 871.069L1135.08 872.172L1136.31 874.575L1137.74 875.484L1138.71 879.899L1140.01 879.639L1139.49 876.522L1140.47 873.795L1142.42 873.341L1144.49 875.419L1146.25 877.237L1148.65 878.016L1145.92 874.575L1145.86 872.822L1144.75 870.16L1142.54 867.433L1140.27 864.186L1139.49 862.368L1140.53 861.394L1143.45 861.589L1144.36 862.758L1148.65 862.498L1150.01 861.914L1146.7 860.745L1144.69 859.317L1143.39 857.109L1138.78 855.291L1135.14 853.473L1132.09 853.278L1128.91 851.59L1127.16 852.175L1125.79 854.317L1122.74 854.707L1121.77 855.681L1121.51 857.953L1118.98 859.706Z" fill="#D9D9D9" stroke="black" stroke-miterlimit="10" stroke-linejoin="bevel"/>
<path d="M1156.63 895.676L1161.18 893.858L1163.97 895.157L1167.02 894.248L1169.94 894.767L1171.57 894.897L1172.02 897.039L1174.29 896.52L1179.03 895.027L1183.77 893.663L1187.54 892.884L1191.24 891.521V889.118L1189.49 889.508L1186.11 891.261L1184.16 891.521L1183.38 888.794L1180.92 890.547L1178.06 889.703L1175.46 890.482L1173.32 889.573L1169.94 890.612L1166.76 892.04L1163.78 891.131H1160.53L1158.39 889.833L1156.83 888.794L1155.92 890.547L1156.63 892.949L1155.4 894.832L1156.63 895.676Z" fill="#D9D9D9" stroke="black" stroke-miterlimit="10" stroke-linejoin="bevel"/>
<path d="M1101.84 834.32L1103.59 835.423L1105.21 836.722L1107.16 838.8L1110.6 841.267L1112.68 842.241L1112.87 840.812L1115.99 841.332L1117.87 842.825L1114.69 843.539L1112.87 845.227L1115.99 847.305L1118 850.811L1118.98 852.889L1120.86 850.811L1122.87 851.98L1126.05 850.357L1129.43 849.772L1133.33 850.746L1133.52 848.149L1135.53 849.967L1136.83 848.993L1138.32 850.422L1141.51 850.616L1144.62 851.525L1141.7 853.343L1142.42 855.032L1145.6 854.447L1148.58 851.461L1150.99 854.252L1153.91 856.265H1156.11L1154.69 851.59L1153.71 848.474L1149.43 847.76L1147.61 845.877H1145.21L1144.43 843.799L1142.61 844.513L1140.99 843.41L1137.81 843.02L1133.91 842.63L1136.12 841.202L1139.69 838.28L1137.81 836.073L1138.19 833.735H1143.06L1137.68 830.359L1136.25 827.372L1133.33 825.1L1131.31 822.828C1131.31 822.828 1132.09 819.321 1132.09 819.062C1132.09 818.802 1130.79 817.374 1130.79 817.374L1131.77 815.361L1134.56 813.348V814.971L1135.14 817.179L1139.62 818.283L1143.71 817.958L1145.79 815.491L1145.08 813.088L1143.39 811.206L1145.01 809.323L1147.61 809.647L1149.82 808.673L1150.34 806.206L1152.93 805.037L1155.34 805.817L1157.93 804.323L1160.01 802.311L1164.23 803.934L1167.35 803.349L1170.33 802.57L1172.74 803.284L1174.16 800.687L1173.39 797.571L1173.77 795.363L1176.05 794.324L1177.02 792.442L1175.14 789.974L1171.57 788.741L1168.97 790.039L1170.92 792.636L1171.57 795.233L1167.67 796.532L1161.18 799.778L1156.63 797.181L1155.34 799.129L1151.44 795.883L1149.49 797.181L1148.19 796.532L1142.35 801.077H1137.81L1136.44 803.025H1133.26L1131.96 803.674V806.271H1130.66L1130.01 807.57L1122.87 808.219L1120.27 812.115L1111.7 814.712L1112.61 816.854L1112.09 819.192L1111.06 820.36L1109.89 821.139L1109.37 824.516L1108.78 826.788L1106.38 827.827L1105.15 828.931L1106.19 830.099C1106.19 830.099 1106.71 831.528 1106.71 831.658C1106.71 831.788 1105.28 831.917 1105.28 831.917L1105.02 833.346L1103.46 833.995L1101.84 834.32Z" fill="#D9D9D9" stroke="black" stroke-miterlimit="10" stroke-linejoin="bevel"/>
<path d="M1020.37 734.156L1016 737.503L1017.89 738.388L1019.06 739.714L1017.3 741.546L1019.06 743.125V743.882L1020.37 745.398L1022.71 747.482L1020.37 748.682L1019.06 750.577H1022.97L1024.6 749.061L1028.19 749.314L1030.14 746.788L1033.4 749.946L1034.71 748.682L1036.66 749.946L1039.27 749.314L1037.96 747.609L1039.27 746.156L1037.96 745.525L1039.27 743.63L1041.22 744.072L1042.53 742.367L1041.22 738.893V737.314L1045.79 736.051L1046.44 734.156H1048.39L1047.94 732.261H1051L1048.59 728.914L1047.55 726.577H1045.79L1044.48 727.714L1045.13 730.367L1040.57 729.735L1039.27 731.63L1033.4 730.998L1032.1 733.525L1029.49 735.419L1027.54 734.788L1024.93 735.419L1020.37 734.156Z" fill="#D9D9D9" stroke="black" stroke-miterlimit="10" stroke-linejoin="bevel"/>
<path d="M1092.7 732.964L1094.01 735.54L1096.63 736.184L1097.94 739.405L1099.25 740.049L1099.9 743.269L1108.41 746.49L1107.1 749.066L1109.72 749.71L1106.44 751.643L1110.44 752.287L1110.37 754.219L1114.95 752.931L1116.26 755.507L1118.22 752.931L1117.57 750.354L1123.46 753.575L1120.84 754.863L1123.46 758.728V761.175L1121.49 763.237L1122.8 769.678L1130 773.542L1128.04 779.339L1126.07 779.983L1125.42 778.695L1124.11 781.271L1125.42 783.204L1124.77 785.136L1126.73 786.424L1125.42 789.001L1122.8 788.357L1116.91 791.577L1116.13 789.001L1115.6 787.068L1111.02 784.492L1106.44 778.695L1101.86 782.56L1100.56 783.848L1095.98 779.983L1095.32 777.407L1089.43 774.186L1088.78 771.61L1084.85 767.745L1087.47 768.389L1089.43 767.745V766.264L1087.47 765.813L1085.77 763.881H1082.89L1082.23 760.66L1084.85 754.219H1082.89L1081.58 751.643L1081.84 749.066L1084.85 749.71V748.358L1079.62 747.134V745.202L1080.93 744.557L1078.31 743.591V740.693L1077 738.761L1078.83 736.699L1080.73 736.893L1083.28 734.896L1085.44 732.577L1086.88 733.608L1089.1 733.028L1090.68 732.577L1092.7 732.964Z" fill="#D9D9D9" stroke="black" stroke-miterlimit="10" stroke-linejoin="bevel"/>
<path d="M1109 682.342L1108.54 685.068L1108.41 687.859L1107.24 689.871L1106.19 691.429L1106.72 692.792L1106.26 694.285L1103.26 695.324L1101.69 694.804L1101.04 692.792L1098.95 692.143L1097.32 693.506L1095.36 693.896L1092.43 693.182L1089.69 693.961L1089.17 696.687L1088.38 699.153L1085.84 699.088L1085.64 700.646L1084.34 701.75L1082.58 700.841L1080.36 700.451L1079.84 702.593L1078.34 703.632L1074.94 703.956L1072.4 704.995L1072.6 706.683L1073.38 708.435L1071.22 709.344L1067.44 709.733L1064.11 710.577L1060.98 710.188L1058.76 708.435L1057 706.683H1054.91L1051 701.49L1051.98 699.218L1052.3 696.946L1053.28 694.35L1054.33 693.766H1057.98L1060.39 693.052L1061.31 691.234L1062.03 689.806L1063.13 689.482L1064.05 685.522L1066.85 683.575L1070.05 681.368L1071.68 682.212L1072.46 683.315L1074.55 681.368L1076.25 678.837L1077.55 681.368L1079.97 682.212L1080.16 684.549H1082.51L1084.4 683.056L1086.49 680.459L1088.32 680.654L1091.12 681.368H1093.34L1093.73 679.032L1097.45 678.577L1101.95 679.421L1103.45 681.368L1107.17 682.212L1109 682.342Z" fill="#D9D9D9" stroke="black" stroke-miterlimit="10" stroke-linejoin="bevel"/>
<path d="M1051.21 732.241L1048.8 728.817L1047.76 726.427H1046L1049.91 722.551L1048.61 718.675L1050.56 717.383L1051.86 716.737L1050.95 714.476L1048.61 712.861H1055.12L1054.47 709.631L1055.12 707.047H1057.2L1058.96 708.792L1061.18 710.536L1064.3 710.923L1067.63 710.084L1071.4 709.696L1073.55 708.792L1072.77 707.047L1072.58 705.368L1075.12 704.334L1078.5 704.011L1080 702.978L1080.52 700.846L1082.74 701.233L1084.5 702.138L1085.8 701.04L1085.99 699.489L1088.53 699.554L1089.32 697.099L1089.84 694.386L1092.57 693.611L1095.5 694.321L1097.46 693.934L1099.09 692.577L1101.17 693.223L1101.82 695.226L1103.39 695.743L1106.38 694.709L1108.27 694.321L1108.86 695.936L1111.59 696.195L1112.05 698.391L1113.55 697.874L1115.18 698.004L1117 700.587L1113.74 703.817L1109.83 705.109L1108.53 710.923L1106.58 712.861L1105.28 716.737L1103.32 723.843L1101.37 729.657H1098.11L1097.46 731.595L1092.9 732.887L1090.88 732.5L1089.32 732.952L1087.1 733.533L1085.67 732.5L1083.52 734.825L1080.98 736.828L1079.09 736.634L1077.27 738.701H1075.18L1073.36 741.285L1066.84 742.577L1063.59 739.993H1060.33L1051.21 732.241Z" fill="#D9D9D9" stroke="black" stroke-miterlimit="10" stroke-linejoin="bevel"/>
<path d="M1026.89 664.821L1025.13 662.927L1022.79 660.577L1021.55 662.209L1023.18 663.58L1022.01 664.364L1018.82 665.212L1018.04 666.518L1014.78 666.584L1014.33 668.281H1013.02L1011.72 670.109L1010.16 670.24L1009.12 672.59L1006.77 671.741L1004.36 673.373L1002.8 674.875L1000 673.83L1000.59 676.246L1004.3 679.314L1005.4 680.816L1003.71 682.187L1004.88 685.386L1007.68 689.107L1009.9 689.434L1011.07 690.935L1012.31 693.025L1017.13 695.636L1019.73 698.966L1024.29 701.577L1026.24 699.619L1028.2 700.924L1029.5 697.007L1031.45 697.66L1032.1 693.09L1033.4 695.048L1036.66 693.743L1043.43 697.007H1046.1L1047.73 695.048L1049.94 697.007L1050.99 696.354L1052.29 697.007L1053.27 694.396L1054.31 693.808H1057.95L1060.36 693.09L1061.27 691.262L1061.99 689.826L1063.1 689.499L1064.01 685.517L1066.81 683.558L1070 681.338L1069.48 679.184H1067.92L1067.2 677.486L1065.57 674.875H1062.71H1061.27H1058.87L1058.08 673.504L1056.26 672.655L1057.37 672.002L1057.5 670.24L1055.54 671.154L1052.35 670.892L1050.07 669.064L1048.64 669.652L1049.75 672.263L1048.58 673.373L1046.88 674.483L1044.93 672.394L1042.46 670.37L1042.52 668.281L1043.24 666.257L1041.67 666.779H1039.13L1037.64 665.147L1033.6 664.429L1032.1 663.058L1030.6 661.622L1028.52 663.058L1026.89 664.821Z" fill="#D9D9D9" stroke="black" stroke-miterlimit="10" stroke-linejoin="bevel"/>
<path d="M953.117 716.354L954.481 717.411L957.208 717.147L959.675 716.552L961.234 717.478L963.052 717.61L963.701 716.618L962.727 716.155L962.078 714.899L964.61 713.577L967.468 716.288L972.338 716.552L975.13 719.064L975.844 720.915L973.896 721.642L972.662 724.75V726.204L974.026 726.799L975.909 726.204L978.506 726.865L979.156 728.848L981.104 729.509L983.701 727.526H985V730.171L983.377 731.493L984.74 733.674L982.987 734.732L981.104 732.617L980.779 734.468L981.104 737.773L980.325 739.624L979.221 736.848L977.273 736.517L975.844 738.368L974.091 737.971L973.182 735.129L971.558 735.261L971.169 738.699L968.571 742.467L969.221 744.648C969.221 744.648 968.247 745.64 968.052 745.574C967.922 745.442 966.429 743.525 966.429 743.525L965.974 741.211L962.403 739.558L962.727 737.707L962.273 735.592L958.247 738.17L959.026 740.682L955.52 744.186L953.961 743.062H951.494L948.831 744.582L946.688 743.987L944.74 740.682V738.038L944.091 735.393H939.156L938.896 738.038L937.597 740.021H935L936.948 738.038V732.749L940.844 730.766V727.46L943.442 726.138L947.338 721.51L946.039 720.188L947.338 718.205L950.584 719.527L953.182 717.676V716.354H953.117Z" fill="#D9D9D9" stroke="black" stroke-miterlimit="10" stroke-linejoin="bevel"/>
<path d="M923.87 655.13L927.307 653.577L930.29 655.583L931.976 657.783L937.229 658.818L937.488 661.601L936.386 662.701V664.383L935.413 665.483L936.321 666.712H938.72L940.082 667.748L940.471 668.395L941.573 668.718L940.73 669.883L941.573 671.048L943 671.759L942.481 673.312L940.082 675.448H938.85L937.423 676.418L935.218 679.524L936.126 682.048L937.099 683.989L936.126 685.283L932.884 686.577L930.939 682.695L927.048 681.401V678.165V675.577L923.805 678.165H920.563L920.369 675.577L920.563 672.342L915.375 671.695L914.727 669.107H911.874L911.485 663.93L908.242 664.577L905.648 662.636L905 659.401L907.853 657.524L912.652 655.13L915.051 654.677L917.061 655.648L919.396 655.842L921.86 656.942L923.546 657.007L923.87 655.13Z" fill="#D9D9D9" stroke="black" stroke-miterlimit="10" stroke-linejoin="bevel"/>
<path d="M1018.82 619.223L1020.31 623.489L1021.8 627.367C1021.8 627.367 1019.99 629.629 1019.92 629.953C1019.79 630.276 1018.82 633.314 1018.82 633.314C1018.82 633.314 1019.99 634.413 1020.25 634.736C1020.44 635.059 1024.46 636.804 1024.46 636.804L1023.16 639.777L1024.46 642.363L1025.82 645.142L1025.63 647.211L1025.04 649.214L1025.95 651.477L1025.56 653.868L1028.48 654.256L1029 659.427V663.111L1027.38 664.857L1025.69 663.047L1023.29 660.72L1022.13 662.336L1023.75 663.693L1022.58 664.469L1019.4 665.309L1018.63 666.602L1015.38 666.666L1014.93 668.347L1013.57 668.282L1012.34 670.092L1010.71 670.221L1009.74 672.484L1007.41 671.708L1005.01 673.324L1003.45 674.811L1000.66 673.776L1001.18 676.168L1004.88 679.206L1006.05 680.693L1004.36 682.115L1005.53 685.217L1008.32 688.901L1010.52 689.225L1011.69 690.711L1012.92 692.78L1017.78 695.365L1020.38 698.662L1019.99 701.247H1016.42L1015.84 704.479L1009.35 708.357L1011.95 712.882L1011.3 714.174L1013.24 715.467L1012.6 718.699H1010.65L1010 715.467L1006.76 716.76L1004.81 715.467H1003.52V717.406H997.682L996.644 718.699H995.153L994.439 719.992L990.549 720.638L989.252 718.053H984.713L984.973 720.638L982.768 722.577L982.12 720.638L979.526 718.053L977.581 717.406L975.635 718.699L975.571 718.828L972.782 716.372L967.919 716.113L965.066 713.463L962.537 714.756L963.186 715.984L964.158 716.437L963.51 717.406L961.695 717.277L960.138 716.372L957.674 716.954L954.951 717.212L953.589 716.178V717.535V713.657L954.886 710.943L954.238 708.357L956.831 705.125V701.635L961.37 695.43L954.886 693.491L953.589 692.198L949.699 693.491L947.754 690.905L947.105 692.844L944.512 687.673L941.853 686.898L942.307 684.635L944.058 683.537L944.771 681.921L943.28 680.951L941.075 679.982L940.426 678.172L940.686 675.263L943.085 673.13L943.539 671.579L942.112 670.868L941.269 669.704L942.112 668.605L941.01 668.282L940.621 667.636L939.259 666.666L939.713 665.374L940.816 664.792L940.491 663.111L939 661.948L941.529 659.621L940.167 658.716L942.566 655.161L940.037 651.024L940.491 649.02H943.344L945.419 649.732L948.726 647.534L946.846 645.595L951.125 642.88V640.101L947.754 639.002L948.143 636.74L951.579 636.416L952.033 632.344L953.524 628.207L954.951 626.462L952.098 625.816L951.903 623.748L954.043 620.968H956.313L959.49 620.386L960.852 620.645L961.695 623.683L963.251 626.139L965.844 626.074L965.909 619.869L967.076 617.801L968.179 619.029L971.097 618.641L974.728 622.39L976.867 624.911L977.97 622.261L975.311 621.097L973.301 617.801L969.54 617.155L970.059 613.47L970.578 611.79L967.595 610.949L967.919 609.592H970.254L970.578 607.394L967.66 604.809L967.011 601.577H970.318L974.144 603.064L976.673 603.904L978.683 603.839L978.488 605.391L979.98 606.554L978.035 608.429L978.813 609.334L981.082 608.687L980.628 611.079L982.638 609.915L985.427 611.079L987.761 611.208L989.447 609.98L990.095 612.178L986.529 615.151L986.594 616.573L989.771 617.025L990.938 616.25L991.975 618.253L994.05 616.25L995.023 613.793L998.395 613.406L999.173 614.504L1000.15 612.242L1002.61 609.592L1003.13 607.976L1007.41 609.01L1010.46 606.425L1013.57 609.98L1010.39 612.048L1011.95 614.117L1014.22 614.246L1014.86 617.801L1018.82 619.223Z" fill="#D9D9D9" stroke="black" stroke-miterlimit="10" stroke-linejoin="bevel"/>
<path d="M1116.39 700.568L1117.69 697.311L1120.94 699.265L1123.54 697.962L1128.74 698.614L1132.64 696.659L1137.83 699.916L1140.43 696.008L1146.93 694.054L1150.83 692.1L1149.53 690.146L1154.08 686.889L1154.73 684.935L1158.62 684.283L1162.52 681.678H1165.77L1168.37 684.283L1170.97 682.98L1172.27 684.935L1175.52 683.632L1178.76 686.237L1180.06 684.935L1181.36 686.889L1182.01 691.448L1185.26 695.357L1186.56 693.403L1187.86 694.705V697.571L1189.16 699.265L1192.41 700.568L1194.36 705.127L1196.95 706.43L1194.36 708.384L1192.41 706.43L1191.76 709.036L1189.16 707.733L1187.21 709.687L1185.91 707.082L1183.96 710.338L1186.56 712.944L1185.26 714.898L1186.56 716.852L1183.96 717.504L1184.61 719.458L1182.66 720.761L1183.31 725.32H1180.71L1179.41 725.972L1182.01 728.577H1185.91L1189.16 726.623L1193.71 723.366L1195.27 721.933L1193.45 716.331L1196.24 718.416L1196.89 715.484L1198.64 714.312L1200.72 710.599L1202.54 706.17L1201.76 703.76L1203.39 703.043L1202.22 700.503L1208.13 698.809V695.682L1210.6 697.311L1213.52 696.594V691.383L1216.83 696.073L1221.71 694.249L1219.82 697.571L1214.04 698.353L1217.03 701.089L1215.21 702.066L1219.82 702.196L1221.71 703.173L1225.8 701.349L1228.53 700.437L1230.54 698.483L1233.14 700.437L1234.57 697.571L1235.09 700.437L1236.39 701.871L1229.11 708.71L1228.53 710.404L1225.8 712.683L1227.23 713.4L1230.54 712.488L1234.12 713.791H1237.49L1240.29 716.527V718.35L1240.81 720.63L1239.7 722.519L1242.11 723.106L1245.03 724.083L1248.15 720.565L1250.03 716.071L1253.54 712.944L1256.34 712.358L1257.05 709.883L1258.48 707.798L1259.97 706.17L1263.29 707.082L1264.72 704.997L1267.51 704.671V701.089L1268.29 698.679L1264 698.809L1263.03 701.74L1260.56 700.959L1259.78 703.76L1257.76 704.411L1253.54 702.392L1247.56 696.008L1246.14 692.816L1248.54 693.207L1250.62 689.69L1252.05 686.107L1253.93 683.892L1255.82 680.766H1258.54L1261.27 676.662L1264.39 678.095L1264.59 674.317L1267.38 672.233L1269.07 669.757L1271.15 667.934L1275.05 666.761L1276.61 665.458L1274.66 658.293L1278.55 655.036L1279.85 650.477L1287 648.522L1285.7 640.706L1280.5 636.146L1283.1 632.889L1277.25 630.935L1280.5 627.027L1279.2 621.816L1273.36 622.467L1263.61 621.164L1258.41 623.77L1257.11 625.724L1249.97 619.862L1243.47 626.375L1236.97 625.073L1232.43 628.33L1228.53 623.77L1223.33 617.256L1216.19 618.559L1211.64 613.999L1214.24 610.091L1207.74 607.485L1205.14 603.577L1201.89 604.229L1198.64 608.137L1192.8 608.788L1190.2 614.651L1184.09 614.26L1182.01 615.953L1179.61 616.865L1178.18 622.597L1179.15 626.18L1180.97 630.088L1178.18 629.372L1175.39 627.157C1175.39 627.157 1173.7 629.372 1173.37 629.437C1173.05 629.567 1170.97 628.851 1170.97 628.851L1167.85 631.326L1165.06 628.134L1162.85 629.958L1161.68 632.564L1160.05 630.349L1157.78 631.261L1156.35 629.958L1154.34 632.042L1151.93 633.932L1150.24 632.042L1147.45 633.215L1146.73 631.326H1144.72L1136.21 632.042L1133.74 631.326L1130.04 632.759H1125.75L1122.37 634.453H1119.06L1118.15 637.449L1115.94 640.641L1113.67 639.533L1111.78 641.683L1112.95 643.767L1113.67 646.568L1119.64 651.91L1118.02 652.431L1118.73 653.864L1120.42 656.6L1119.45 659.01L1115.94 661.029L1109.25 674.057L1108.86 676.532L1110.16 679.463L1111.07 681.157L1112.37 682.98L1108.79 682.785L1108.34 685.521L1108.21 688.257L1107.04 690.341L1106 691.904L1106.52 693.272L1106.06 694.77L1107.88 694.38L1108.47 696.008L1111.2 696.269L1111.65 698.483L1113.08 697.962L1114.71 698.093L1116.39 700.568Z" fill="#D9D9D9" stroke="black" stroke-miterlimit="10" stroke-linejoin="bevel"/>
<path d="M1126.42 542.083L1130.28 544.876V550.334L1132.85 552.872L1136.71 557.315L1138 561.757L1134.65 564.105L1133.88 567.533L1131.82 567.913H1130.54L1128.67 567.786L1127.96 570.198L1126.48 571.658L1122.43 570.071L1119.21 567.786L1116.31 565.882L1111.81 566.644L1109.94 564.042L1108.72 563.027C1108.72 563.027 1106.08 566.771 1105.89 566.707C1105.7 566.644 1104.99 565.819 1104.67 565.819C1104.34 565.819 1102.61 567.152 1102.61 567.152L1099.97 566.263L1098.1 567.342L1095.4 566.961L1093.53 568.104L1091.09 567.533L1088.19 568.231L1085.3 568.485L1078.99 572.102V574.577H1077.57L1075.71 571.34V566.581L1075 563.661L1076.8 561.821L1077.9 559.79L1078.09 556.172L1077.9 552.364L1081.95 549.699L1084.85 547.541L1086.13 549.128L1088.51 550.905L1090.89 552.047L1091.8 554.586L1093.6 556.934L1096.17 557.378L1098.62 556.934L1101.06 553.697L1102.74 550.587L1100.42 546.272L1099.26 543.67L1100.42 542.527L1103.7 539.1L1105.37 538.402L1106.34 539.227L1107.37 537.577L1109.36 539.608L1110.91 538.846L1111.87 540.433L1113.48 539.989L1114.83 542.147L1118.76 543.797L1121.14 541.385L1124.61 542.337L1126.42 542.083Z" fill="#D9D9D9" stroke="black" stroke-miterlimit="10" stroke-linejoin="bevel"/>
<path d="M1126.51 572.028L1128 570.531L1128.71 568.059L1130.59 568.189H1131.89L1133.96 567.799L1134.74 564.286L1138.11 561.878L1140.06 561.228L1143.95 562.529L1148.49 561.878L1150.44 565.131L1156.27 560.577L1164.06 562.529L1165.35 570.401V575.541L1169.44 577.168L1171.84 581.396L1178.33 584.194L1179.62 588.553L1185.46 586.601L1187.41 589.854L1189.35 593.107L1186.76 597.661L1178.33 597.206V600.914L1182.87 604.818L1184.81 609.372L1190 614.577L1183.9 614.187L1181.83 615.878L1179.43 616.789L1178 622.515L1178.97 626.093L1180.79 629.996L1178 629.281L1175.21 627.069C1175.21 627.069 1173.53 629.281 1173.2 629.346C1172.88 629.476 1170.8 628.76 1170.8 628.76L1167.69 631.233L1164.9 628.045L1162.7 629.866L1161.53 632.469L1159.91 630.257L1157.64 631.168L1156.21 629.866L1154.2 631.948L1151.8 633.835L1150.11 631.948L1147.32 633.119L1146.61 631.233H1144.6L1136.1 631.948L1133.64 631.233L1129.94 632.664H1125.66L1122.29 634.355H1118.98L1118.07 637.348L1115.87 640.536L1113.6 639.43L1111.72 641.577L1111.2 637.088L1111.07 634.095L1108.8 632.274L1105.88 632.078V629.476L1109.45 626.288L1112.43 623.295L1111.72 619.587L1107.96 612.17L1105.88 609.047L1104 604.558H1106.46L1109.51 603.127L1111.52 604.102L1113.21 603.452L1114.57 601.955L1115.93 600.98L1115.8 599.418L1118.33 598.833L1118.53 597.336L1119.76 595.97L1121.51 595.775C1121.51 595.775 1122.35 597.662 1122.55 597.596C1122.74 597.531 1124.37 595.97 1124.37 595.97L1123.2 594.408L1121.58 593.823L1122.22 591.09L1121.97 588.683L1121.77 586.796L1123.46 584.454L1124.69 582.568L1125.08 580.03L1128.58 580.486L1129.03 577.233H1127.67L1126.31 576.322V572.028H1126.51Z" fill="#D9D9D9" stroke="black" stroke-miterlimit="10" stroke-linejoin="bevel"/>
<path d="M1116.35 494.118L1115.9 495.551L1114.22 496.658L1112.34 494.964L1110.85 495.42L1110.53 497.766L1107.68 498.548L1107.29 496.723L1105.8 496.137L1106.19 499.525L1103.53 498.482L1102.88 499.916L1104.5 502.847L1102.17 502L1100.1 501.805L1099.45 504.411L1097.7 504.997L1095.63 505.909L1093.56 506.17L1093.36 508.711L1090.32 508.645L1088.7 510.209L1086.11 511.577L1086.24 509.558L1084.23 510.404H1081.64L1081.9 505.714L1078.66 508.255L1078.27 505.649L1075.55 506.43L1074 505.323L1071.86 505.649C1071.86 505.649 1070.76 503.89 1070.5 503.89C1070.3 503.89 1068.62 505.649 1068.62 505.649C1068.62 505.649 1067.26 503.694 1067.26 503.499C1067.26 503.303 1067.65 502 1067.65 502L1065.83 497.505L1067.2 495.551L1066.74 492.684L1065.58 490.534L1067.52 490.6L1067.71 488.645L1066.29 487.407L1064.28 483.629L1063.11 483.042V476.332L1060.59 475.616L1061.24 473.726L1059.88 472.228L1060.52 470.013L1063.37 467.211L1063.11 465.322L1060.85 464.149L1062.79 462.325L1065.06 464.345L1065.32 462.065C1065.32 462.065 1067.65 461.022 1067.65 460.631C1067.65 460.241 1067.32 458.742 1067.32 458.742L1067.45 454.377L1068.49 455.224L1069.53 454.573L1069.66 451.576L1071.66 450.012L1073.35 449.1V445.647L1074.84 444.67L1075.23 442.781L1075.29 441.413L1076.72 439.654V437.83L1076.59 435.028L1078.4 434.442L1078.72 433.009L1081.19 431.771L1082.8 430.729L1082.87 428.709L1080.28 428.058L1080.47 425.191L1079.57 421.999L1078.21 420.761L1076.59 421.282H1074.64L1074.19 419.002L1072.51 418.155L1070.11 418.611L1067.84 415.158L1065.45 409.946L1067.07 404.735C1067.07 404.735 1065.58 402.585 1065.45 402.194C1065.32 401.803 1063.18 399.392 1063.18 399.392V397.373V395.353L1060.91 394.702L1060.39 390.141V387.34L1058.9 385.06L1056.9 383.431L1053.98 381.672L1048.67 380.044L1044.01 376.721L1042 374.571V372.617L1042.32 368.252L1044.46 368.122L1048.48 372.291L1050.74 376.004L1053.59 376.46L1057.74 375.092L1060.98 372.942L1064.28 374.897L1065.83 374.962L1066.16 371.574L1067.13 369.881L1068.75 369.815L1068.36 366.623C1068.36 366.623 1067.58 363.431 1067.52 363.17C1067.45 362.91 1067.45 359.783 1067.45 359.783L1066.94 356.655L1068.1 354.18L1068.88 352.421L1070.69 352.356L1072.51 352.03L1074.13 349.489L1076.2 348.577C1076.2 348.577 1077.62 350.727 1077.62 350.857C1077.62 350.988 1081.64 352.486 1081.64 352.486L1085.59 355.027L1085.91 356.851L1083.97 360.239L1085.07 361.998L1087.01 363.496L1085.07 365.45L1086.37 370.011L1088.31 375.874L1094.14 377.829L1099.97 382.389L1096.08 395.418L1099.97 398.676L1109.68 412.357H1107.09L1109.04 420.37V423.432L1114.86 426.624V431.25L1117.46 432.422L1120.69 435.81L1118.75 441.673L1133 450.143L1131.7 458.612L1123.93 481.414L1117.46 493.792L1116.35 494.118Z" fill="#D9D9D9" stroke="black" stroke-miterlimit="10" stroke-linejoin="bevel"/>
<path d="M1392.78 700.4L1383.02 701.674L1381.07 696.577L1377.16 698.489L1371.31 697.214L1370.66 700.4L1367.4 699.126L1363.37 704.86L1358.29 705.498L1359.4 703.586H1349.96H1343.13L1338.77 705.498L1330.97 708.046H1322.7L1317.3 709.321L1316 712.506H1318.8L1319.97 714.163H1322.51H1324.91L1327.19 713.016L1329.99 713.653L1331.16 715.246H1333.7L1336.76 716.266L1337.93 718.878L1340.07 721.618L1342.87 724.103L1344.5 727.098L1343.98 730.347L1342.87 732.577L1347.3 732.004L1348.08 729.965L1351.01 729.264L1354.71 728.372L1354.32 725.951L1356.6 724.995L1357.51 726.397L1360.64 726.269L1362.65 727.352V728.436L1365.45 727.352L1366.56 728.244L1369.55 725.759L1372.35 723.02L1377.55 720.662L1380.22 719.197L1381.13 717.094L1382.89 713.972L1386.34 712.251L1389.65 712.379L1391.28 714.099L1392.78 713.08L1395.45 711.487L1397.46 712.124H1399.09L1400 709.384L1398.83 707.536L1394.27 707.154L1391.74 705.561L1390.83 703.841L1392.45 702.949L1392.78 700.4Z" fill="#D9D9D9" stroke="black" stroke-miterlimit="10" stroke-linejoin="bevel"/>
<path d="M1380.71 717.577L1379.79 719.701L1377.1 721.117L1371.84 723.499L1369.02 726.267L1366 728.842V730.193L1371.19 731.674L1372.17 734.763L1371.65 738.304L1373.09 740.106L1374.8 741.973L1378.54 741.586L1381.89 740.492L1386.09 739.913L1389.77 742.166L1391.35 739.334L1393.05 739.205L1394.56 741.715L1395.61 740.299L1397.85 740.814L1399.75 738.819L1402.18 737.917L1402.77 739.205V740.878L1405.33 741.2L1406.38 742.166L1408.55 744.097L1410.26 745.577L1411.57 743.968L1414 743.711L1413.08 741.522L1411.77 740.042L1410.65 739.913L1410.85 738.754L1412.49 738.046L1411.44 737.016L1408.75 736.759L1408.94 734.892L1409.34 733.412L1406.91 734.184L1405.07 735.085L1402.57 733.605L1399.95 733.09L1396.53 732.768L1397.85 731.545L1398.83 730.129L1399.03 728.455L1396.93 726.653L1393.78 726.524L1390.89 725.752L1389.24 723.885L1390.76 721.375L1389.57 720.538L1387.34 720.216L1386.82 719.251L1385.11 720.281L1382.74 720.989L1383.79 718.607H1382.15L1380.71 717.577Z" fill="#D9D9D9" stroke="black" stroke-miterlimit="10" stroke-linejoin="bevel"/>
<path d="M1380.96 717.191L1382.71 714.009L1386.15 712.256L1389.46 712.386L1391.09 714.139L1392.58 713.1L1395.24 711.477L1397.25 712.126H1398.88L1399.79 709.335L1398.62 707.452L1394.07 707.062L1391.54 705.439L1390.63 703.686L1392.26 702.777L1392.71 700.245L1398.55 702.193H1403.75L1406.99 704.79L1412.19 702.193L1412.84 697.648L1414.92 689.207L1420.37 691.155L1423.88 693.427L1427.77 696.934L1431.67 697.778L1432.77 699.401L1435.89 699.271L1438.68 696.869L1441.41 697.518L1444.78 699.596L1441.67 700.05L1439.85 701.349L1438.16 701.154L1438.03 704.595C1438.03 704.595 1436.73 703.946 1436.6 704.595C1436.47 705.244 1436.21 708.036 1436.21 708.036L1437.9 711.412L1438.81 714.399L1437.9 716.087L1440.11 718.165L1441.28 719.139L1439.46 720.113L1440.37 722.125L1441.67 725.242L1439.98 725.956L1439.07 723.489L1437.38 723.813L1438.81 726.41L1438.48 729.008L1441.79 734.461C1441.79 734.461 1441.41 736.344 1441.02 736.539C1440.63 736.734 1437.83 736.539 1437.83 736.539L1435.95 734.332L1434.78 735.825L1433.29 734.332H1431.21L1429.78 733.423L1431.08 731.605L1432.58 730.176L1430.76 728.488L1428.55 727.579L1428.03 726.151L1429.33 724.268L1427.64 723.489L1424.65 722.385L1422.64 722.71L1420.82 726.475L1417.25 732.773L1417.58 735.565L1415.95 737.383L1415.17 739.461L1414.01 743.162L1413.1 740.954L1411.8 739.461L1410.69 739.331L1410.89 738.162L1412.51 737.448L1411.54 736.474L1408.81 736.15L1409.01 734.267L1409.4 732.773L1406.99 733.552L1405.18 734.461L1402.71 732.968L1400.11 732.449L1396.74 732.124L1398.03 730.89L1399.01 729.397L1399.2 727.709L1397.12 725.891L1394.01 725.761L1391.09 724.982L1389.46 723.099L1390.96 720.632L1389.79 719.723L1387.58 719.398L1387.06 718.424L1385.37 719.528L1383.1 720.242L1384.07 717.84H1382.45L1380.96 717.191Z" fill="#D9D9D9" stroke="black" stroke-miterlimit="10" stroke-linejoin="bevel"/>
<path d="M1389.92 741.993L1391.48 739.136L1393.16 739.006L1394.66 741.539L1395.7 740.11L1397.9 740.63L1399.79 738.617L1402.19 737.708L1402.77 739.006V740.695L1405.31 741.019L1406.34 741.993L1408.49 743.941L1410.18 745.434L1408.1 746.798L1404.85 747.187L1401.48 748.096L1399.72 746.603L1397 746.148L1395.18 744.915L1393.36 744.72L1391.87 742.902L1389.92 741.993Z" fill="#D9D9D9" stroke="black" stroke-miterlimit="10" stroke-linejoin="bevel"/>
<path d="M856.273 476.577L857.364 472.045L858.386 468.535L862 465.79L856.273 464.577H850L851.023 467.386L853.75 468.535L854.364 472.237L856.273 476.577Z" fill="#D9D9D9" stroke="black" stroke-miterlimit="10" stroke-linejoin="bevel"/>
</svg>
