<svg viewBox="0 0 131 185" xmlns="http://www.w3.org/2000/svg">
<path d="M7 38.1519C7 27.2488 7 21.7972 9.1255 17.6306C10.995 13.9673 13.978 10.9888 17.647 9.12223C21.82 7 27.28 7 38.2 7H92.8C103.72 7 109.18 7 113.353 9.12223C117.022 10.9888 120.005 13.9673 121.874 17.6306C124 21.7972 124 27.2488 124 38.1519V167.676C124 172.407 124 174.773 123.015 176.067C122.59 176.631 122.047 177.095 121.424 177.427C120.801 177.76 120.113 177.954 119.408 177.995C117.779 178.092 115.81 176.778 111.871 174.159L65.5 143.29L19.129 174.15C15.19 176.778 13.2205 178.092 11.5825 177.995C10.8789 177.952 10.1929 177.758 9.57178 177.425C8.95067 177.093 8.40921 176.629 7.98475 176.067C7 174.773 7 172.407 7 167.676V38.1519Z" stroke="#191919" stroke-width="13" stroke-linecap="round" stroke-linejoin="round"/>
</svg>
