<svg viewBox="0 0 118 111" xmlns="http://www.w3.org/2000/svg">
<path d="M116.021 54.0575L72.6775 15.2946C71.9198 14.6172 70.9545 14.1559 69.9037 13.969C68.8529 13.7822 67.7637 13.8781 66.7739 14.2448C65.784 14.6114 64.9379 15.2323 64.3426 16.0289C63.7473 16.8255 63.4294 17.7621 63.4291 18.7203V35.8971C48.629 37.1219 34.8725 43.242 24.8519 53.0594C14.8313 62.8769 9.26773 75.6853 9.25 88.9779V96.2459C9.25086 97.2517 9.60168 98.2324 10.2538 99.0518C10.9059 99.8713 11.827 100.489 12.8894 100.819C13.9517 101.149 15.1026 101.176 16.1824 100.894C17.2622 100.613 18.2174 100.039 18.9156 99.2501C24.2243 93.6058 30.7371 88.964 38.0738 85.5955C45.4106 82.2271 53.4241 80.1995 61.6466 79.6312C61.9175 79.6022 62.5948 79.5537 63.4291 79.5053V96.2459C63.4294 97.2041 63.7473 98.1407 64.3426 98.9373C64.9379 99.734 65.784 100.355 66.7739 100.721C67.7637 101.088 68.8529 101.184 69.9037 100.997C70.9545 100.81 71.9198 100.349 72.6775 99.6716L116.021 60.9088C117.037 60.0002 117.607 58.7679 117.607 57.4831C117.607 56.1983 117.037 54.9661 116.021 54.0575ZM74.265 84.5493V74.4419C74.265 73.1568 73.6942 71.9244 72.6781 71.0157C71.662 70.107 70.284 69.5965 68.8471 69.5965C67.4655 69.5965 61.8254 69.8388 60.3843 70.0084C45.7819 71.2102 31.8821 76.1718 20.3676 84.2925C21.6746 73.6057 27.3433 63.7256 36.2884 56.5439C45.2335 49.3622 56.8262 45.3835 68.8471 45.3697C70.284 45.3697 71.662 44.8592 72.6781 43.9506C73.6942 43.0419 74.265 41.8095 74.265 40.5244V30.417L104.529 57.4831L74.265 84.5493Z"/>
</svg>
