<svg width="65" height="66" viewBox="0 0 65 66" fill="none" xmlns="http://www.w3.org/2000/svg">
<path d="M31.5003 9.3546L33.7482 10.7142C34.1598 10.9633 34.6636 10.595 34.5553 10.1292L33.9594 7.57251L35.9473 5.85002C36.3103 5.53585 36.1153 4.94002 35.6386 4.9021L33.0223 4.68002L31.9986 2.26418C31.8144 1.82543 31.1861 1.82543 31.0019 2.26418L29.9782 4.6746L27.3619 4.89668C26.8853 4.9346 26.6903 5.53043 27.0532 5.8446L29.0411 7.5671L28.4453 10.1238C28.3369 10.5896 28.8407 10.9579 29.2523 10.7088L31.5003 9.3546Z" fill="#FFCC00"/>
<path d="M31.5003 62.3546L33.7482 63.7142C34.1598 63.9633 34.6636 63.595 34.5553 63.1292L33.9594 60.5725L35.9473 58.85C36.3103 58.5358 36.1153 57.94 35.6386 57.9021L33.0223 57.68L31.9986 55.2642C31.8144 54.8254 31.1861 54.8254 31.0019 55.2642L29.9782 57.6746L27.3619 57.8967C26.8853 57.9346 26.6903 58.5304 27.0532 58.8446L29.0411 60.5671L28.4453 63.1238C28.3369 63.5896 28.8407 63.9579 29.2523 63.7088L31.5003 62.3546Z" fill="#FFCC00"/>
<path d="M6.50025 36.3546L8.74817 37.7142C9.15984 37.9633 9.66359 37.595 9.55525 37.1292L8.95942 34.5725L10.9473 32.85C11.3103 32.5358 11.1153 31.94 10.6386 31.9021L8.02234 31.68L6.99859 29.2642C6.81442 28.8254 6.18609 28.8254 6.00192 29.2642L4.97817 31.6746L2.36192 31.8967C1.88525 31.9346 1.69025 32.5304 2.05317 32.8446L4.04109 34.5671L3.44525 37.1238C3.33692 37.5896 3.84067 37.9579 4.25234 37.7088L6.50025 36.3546Z" fill="#FFCC00"/>
<path d="M8.50025 23.3546L10.7482 24.7142C11.1598 24.9633 11.6636 24.595 11.5553 24.1292L10.9594 21.5725L12.9473 19.85C13.3103 19.5358 13.1153 18.94 12.6386 18.9021L10.0223 18.68L8.99859 16.2642C8.81442 15.8254 8.18609 15.8254 8.00192 16.2642L6.97817 18.6746L4.36192 18.8967C3.88525 18.9346 3.69025 19.5304 4.05317 19.8446L6.04109 21.5671L5.44525 24.1238C5.33692 24.5896 5.84067 24.9579 6.25234 24.7088L8.50025 23.3546Z" fill="#FFCC00"/>
<path d="M18.5003 13.3546L20.7482 14.7142C21.1598 14.9633 21.6636 14.595 21.5553 14.1292L20.9594 11.5725L22.9473 9.85002C23.3103 9.53585 23.1153 8.94002 22.6386 8.9021L20.0223 8.68002L18.9986 6.26418C18.8144 5.82543 18.1861 5.82543 18.0019 6.26418L16.9782 8.6746L14.3619 8.89668C13.8853 8.9346 13.6903 9.53043 14.0532 9.8446L16.0411 11.5671L15.4453 14.1238C15.3369 14.5896 15.8407 14.9579 16.2523 14.7088L18.5003 13.3546Z" fill="#FFCC00"/>
<path d="M44.5003 13.3546L46.7482 14.7142C47.1598 14.9633 47.6636 14.595 47.5553 14.1292L46.9594 11.5725L48.9473 9.85002C49.3103 9.53585 49.1153 8.94002 48.6386 8.9021L46.0223 8.68002L44.9986 6.26418C44.8144 5.82543 44.1861 5.82543 44.0019 6.26418L42.9782 8.6746L40.3619 8.89668C39.8853 8.9346 39.6903 9.53043 40.0532 9.8446L42.0411 11.5671L41.4453 14.1238C41.3369 14.5896 41.8407 14.9579 42.2523 14.7088L44.5003 13.3546Z" fill="#FFCC00"/>
<path d="M55.5003 22.3546L57.7482 23.7142C58.1598 23.9633 58.6636 23.595 58.5553 23.1292L57.9594 20.5725L59.9473 18.85C60.3103 18.5358 60.1153 17.94 59.6386 17.9021L57.0223 17.68L55.9986 15.2642C55.8144 14.8254 55.1861 14.8254 55.0019 15.2642L53.9782 17.6746L51.3619 17.8967C50.8853 17.9346 50.6903 18.5304 51.0532 18.8446L53.0411 20.5671L52.4453 23.1238C52.3369 23.5896 52.8407 23.9579 53.2523 23.7088L55.5003 22.3546Z" fill="#FFCC00"/>
<path d="M58.5003 37.3546L60.7482 38.7142C61.1598 38.9633 61.6636 38.595 61.5553 38.1292L60.9594 35.5725L62.9473 33.85C63.3103 33.5358 63.1153 32.94 62.6386 32.9021L60.0223 32.68L58.9986 30.2642C58.8144 29.8254 58.1861 29.8254 58.0019 30.2642L56.9782 32.6746L54.3619 32.8967C53.8853 32.9346 53.6903 33.5304 54.0532 33.8446L56.0411 35.5671L55.4453 38.1238C55.3369 38.5896 55.8407 38.9579 56.2523 38.7088L58.5003 37.3546Z" fill="#FFCC00"/>
<path d="M55.5003 50.3546L57.7482 51.7142C58.1598 51.9633 58.6636 51.595 58.5553 51.1292L57.9594 48.5725L59.9473 46.85C60.3103 46.5358 60.1153 45.94 59.6386 45.9021L57.0223 45.68L55.9986 43.2642C55.8144 42.8254 55.1861 42.8254 55.0019 43.2642L53.9782 45.6746L51.3619 45.8967C50.8853 45.9346 50.6903 46.5304 51.0532 46.8446L53.0411 48.5671L52.4453 51.1238C52.3369 51.5896 52.8407 51.9579 53.2523 51.7088L55.5003 50.3546Z" fill="#FFCC00"/>
<path d="M45.5003 59.3546L47.7482 60.7142C48.1598 60.9633 48.6636 60.595 48.5553 60.1292L47.9594 57.5725L49.9473 55.85C50.3103 55.5358 50.1153 54.94 49.6386 54.9021L47.0223 54.68L45.9986 52.2642C45.8144 51.8254 45.1861 51.8254 45.0019 52.2642L43.9782 54.6746L41.3619 54.8967C40.8853 54.9346 40.6903 55.5304 41.0532 55.8446L43.0411 57.5671L42.4453 60.1238C42.3369 60.5896 42.8407 60.9579 43.2523 60.7088L45.5003 59.3546Z" fill="#FFCC00"/>
<path d="M8.50025 49.3546L10.7482 50.7142C11.1598 50.9633 11.6636 50.595 11.5553 50.1292L10.9594 47.5725L12.9473 45.85C13.3103 45.5358 13.1153 44.94 12.6386 44.9021L10.0223 44.68L8.99859 42.2642C8.81442 41.8254 8.18609 41.8254 8.00192 42.2642L6.97817 44.6746L4.36192 44.8967C3.88525 44.9346 3.69025 45.5304 4.05317 45.8446L6.04109 47.5671L5.44525 50.1238C5.33692 50.5896 5.84067 50.9579 6.25234 50.7088L8.50025 49.3546Z" fill="#FFCC00"/>
<path d="M18.5003 59.3546L20.7482 60.7142C21.1598 60.9633 21.6636 60.595 21.5553 60.1292L20.9594 57.5725L22.9473 55.85C23.3103 55.5358 23.1153 54.94 22.6386 54.9021L20.0223 54.68L18.9986 52.2642C18.8144 51.8254 18.1861 51.8254 18.0019 52.2642L16.9782 54.6746L14.3619 54.8967C13.8853 54.9346 13.6903 55.5304 14.0532 55.8446L16.0411 57.5671L15.4453 60.1238C15.3369 60.5896 15.8407 60.9579 16.2523 60.7088L18.5003 59.3546Z" fill="#FFCC00"/>
</svg>
