<svg viewBox="0 0 165 169" xmlns="http://www.w3.org/2000/svg">
<path d="M90.75 59.15H78.2925C73.095 59.15 67.98 61.685 65.175 65.065L57.75 42.25H34.0725L14.355 101.4H28.2975L34.4025 84.5H57.75V118.3H16.5C7.425 118.3 0 110.695 0 101.4V42.25C0 32.955 7.425 25.35 16.5 25.35H74.25C83.325 25.35 90.75 32.955 90.75 42.25V59.15ZM53.7075 76.05H37.0425L45.2925 51.2915L53.7075 76.05ZM82.5 67.6H140.25C149.325 67.6 156.75 75.205 156.75 84.5V143.65C156.75 152.945 149.325 160.55 140.25 160.55H82.5C73.425 160.55 66 152.945 66 143.65V84.5C66 75.205 73.425 67.6 82.5 67.6ZM142.312 109.85V100.724H116.16V82.3875H106.59V100.724H80.4375V109.85H90.9975C91.905 117.033 95.6175 125.483 101.558 131.989C94.38 135.031 85.965 137.228 82.5 137.228C82.4175 137.397 84.315 145.425 84.15 149.565C91.08 149.565 102.382 145.34 111.21 139.847C120.202 145.34 131.67 149.565 138.765 149.565C138.6 145.425 140.415 137.397 140.415 137.228C136.868 137.228 128.123 134.947 120.78 131.905C126.555 125.398 130.185 116.948 131.093 109.85H142.312ZM110.88 126.159C106.755 122.272 103.868 116.61 102.548 109.85H119.79C118.388 116.61 115.583 122.272 111.54 126.159L111.21 126.412C111.21 126.412 110.962 126.243 110.88 126.159Z"/>
</svg>
